<svg width="43" height="40" viewBox="0 0 43 40" fill="none" xmlns="http://www.w3.org/2000/svg">
<g clip-path="url(#clip0_123_78)">
<path d="M22.6943 10H25.0832V22.2222H22.6943V10Z" fill="#99AAB5"/>
<path d="M11.9445 10C9.55564 12.2222 7.16675 15.5556 7.16675 17.7778C7.16675 22.2222 13.139 18.8889 13.139 18.8889V10H11.9445Z" fill="#55ACEE"/>
<path d="M5.97211 40C8.61081 40 10.7499 38.0102 10.7499 35.5556C10.7499 33.101 8.61081 31.1111 5.97211 31.1111C3.33342 31.1111 1.19434 33.101 1.19434 35.5556C1.19434 38.0102 3.33342 40 5.97211 40Z" fill="#292F33"/>
<path d="M5.97214 37.7778C7.29149 37.7778 8.36103 36.7829 8.36103 35.5556C8.36103 34.3283 7.29149 33.3333 5.97214 33.3333C4.65279 33.3333 3.58325 34.3283 3.58325 35.5556C3.58325 36.7829 4.65279 37.7778 5.97214 37.7778Z" fill="#99AAB5"/>
<path d="M34.639 25.5555H32.2501C31.6165 25.5555 31.0089 25.7897 30.5609 26.2064C30.1129 26.6232 29.8612 27.1884 29.8612 27.7778V33.3333C29.8612 33.9227 30.1129 34.4879 30.5609 34.9047C31.0089 35.3214 31.6165 35.5555 32.2501 35.5555H34.639C35.2725 35.5555 35.8802 35.3214 36.3282 34.9047C36.7762 34.4879 37.0279 33.9227 37.0279 33.3333V27.7778C37.0279 27.1884 36.7762 26.6232 36.3282 26.2064C35.8802 25.7897 35.2725 25.5555 34.639 25.5555ZM22.6945 25.5555H20.3056C19.6721 25.5555 19.0644 25.7897 18.6164 26.2064C18.1684 26.6232 17.9167 27.1884 17.9167 27.7778V33.3333C17.9167 33.9227 18.1684 34.4879 18.6164 34.9047C19.0644 35.3214 19.6721 35.5555 20.3056 35.5555H22.6945C23.3281 35.5555 23.9357 35.3214 24.3837 34.9047C24.8317 34.4879 25.0834 33.9227 25.0834 33.3333V27.7778C25.0834 27.1884 24.8317 26.6232 24.3837 26.2064C23.9357 25.7897 23.3281 25.5555 22.6945 25.5555Z" fill="#1E5200"/>
<path d="M2.38901 31.53C0.732311 31.78 -0.693856 30.25 1.19456 28.8244C3.58345 27.0211 9.55567 26.1189 11.9446 27.0211C14.3335 27.9233 14.3335 36.6667 13.139 36.6667C11.9446 36.6667 8.36123 30.6278 2.38901 31.53Z" fill="#5C913B"/>
<path d="M13.1388 36.6667H28.6666C29.8611 36.6667 31.0555 36.6667 31.0555 34.4444C31.0555 33.3333 32.2499 30 34.6388 30C37.0277 30 40.6111 33.3333 40.6111 34.4444C40.6111 35.5555 40.6111 36.6667 41.8055 36.6667C42.9999 36.6667 42.9999 35.5555 42.9999 34.4444V21.1111H33.4444C33.4444 24.4444 32.2499 30 32.2499 30C32.2499 30 31.0555 28.8889 31.0555 31.1111C31.0555 31.7844 29.8611 33.3333 28.6666 33.3333H27.4722C26.2777 33.3333 25.0833 32.5933 25.0833 31.4755V21.1111C25.0833 20 22.6944 20 22.6944 21.1111V31.4755C22.6944 32.5933 21.8129 33.3333 20.7128 33.3333H16.7353C15.5277 33.3333 14.3333 32.2222 14.3333 31.1111V21.1111H5.97217C5.97217 27.7778 11.9444 36.6667 13.1388 36.6667Z" fill="#3E721D"/>
<path d="M40.6111 35.5555C40.6111 36.6667 41.8055 35.5555 41.8055 33.3333C41.8055 30 40.8106 27.7778 35.8333 27.7778C30.8561 27.7778 29.8611 31.1111 29.8611 33.3333C29.8611 34.4444 31.0555 36.6667 31.0555 35.5555C31.0555 34.4444 31.8522 33.3333 35.8333 33.3333C39.8144 33.3333 40.6111 34.4444 40.6111 35.5555Z" fill="#5C913B"/>
<path d="M14.3333 21.1111H5.97217C5.97217 20 7.16661 17.7778 7.16661 17.7778H11.9444C12.2612 17.7778 12.565 17.6607 12.789 17.4523C13.013 17.244 13.1388 16.9613 13.1388 16.6667V12.2222C13.1388 12.2222 10.7499 12.2222 10.7499 9.99999C10.7499 9.63777 10.8766 9.27555 11.0486 8.9511C11.4344 8.22222 12.2526 7.77777 13.1269 7.77777H39.4166C41.8055 7.77777 42.9999 13.3333 42.9999 21.1111H33.4444C33.4444 21.1111 33.4444 12.2222 29.8611 12.2222H14.3333V21.1111Z" fill="#FFAC33"/>
<path d="M35.8334 40C38.4721 40 40.6112 38.0102 40.6112 35.5556C40.6112 33.101 38.4721 31.1111 35.8334 31.1111C33.1947 31.1111 31.0557 33.101 31.0557 35.5556C31.0557 38.0102 33.1947 40 35.8334 40Z" fill="#292F33"/>
<path d="M35.8332 37.7778C37.1526 37.7778 38.2221 36.7829 38.2221 35.5556C38.2221 34.3283 37.1526 33.3333 35.8332 33.3333C34.5139 33.3333 33.4443 34.3283 33.4443 35.5556C33.4443 36.7829 34.5139 37.7778 35.8332 37.7778Z" fill="#99AAB5"/>
<path d="M10.7499 20.5556V19.4444C10.7499 19.2971 10.687 19.1558 10.575 19.0516C10.463 18.9474 10.3111 18.8889 10.1527 18.8889H6.6315C6.31378 19.6089 5.97217 20.5156 5.97217 21.1111H10.1527C10.3111 21.1111 10.463 21.0526 10.575 20.9484C10.687 20.8442 10.7499 20.7029 10.7499 20.5556Z" fill="#F4900C"/>
</g>
<defs>
<clipPath id="clip0_123_78">
<rect width="43" height="40" fill="white"/>
</clipPath>
</defs>
</svg>
