<svg width="45" height="45" viewBox="0 0 45 45" fill="none" xmlns="http://www.w3.org/2000/svg">
<path d="M41.1786 30.6879C41.1786 33.2719 40.4543 35.3637 39.5684 35.3637C38.679 35.3637 37.9583 33.2719 37.9583 30.6879C37.9583 28.1039 38.679 26.0086 39.5684 26.0086C40.4543 26.0086 41.1786 28.1074 41.1786 30.6879Z" fill="#2F2F2F"/>
<path d="M38.8689 34.9031C38.8689 34.9031 39.2978 35.5887 39.7619 35.8207C40.813 36.3445 42.2755 36.1512 43.1544 34.9559L42.6834 32.1082L39.7091 32.6742L38.8689 34.9031Z" fill="#2F2F2F"/>
<path d="M8.33545 36.6117C8.33545 39.3715 7.36162 41.6109 6.16631 41.6109C4.96748 41.6109 3.99365 39.3715 3.99365 36.6117C3.99365 33.8484 4.96748 31.609 6.16631 31.609C7.36162 31.6125 8.33545 33.8484 8.33545 36.6117Z" fill="#2F2F2F"/>
<path d="M5.2207 41.1222C5.2207 41.1222 5.79727 41.857 6.43008 42.1031C7.84687 42.6621 9.81562 42.4547 11.0004 41.182L10.3641 38.1375L6.35625 38.7422L5.2207 41.1222Z" fill="#2F2F2F"/>
<path d="M12.2871 36.6117C12.2871 39.3715 11.3133 41.6109 10.118 41.6109C8.91914 41.6109 7.94531 39.3715 7.94531 36.6117C7.94531 33.8484 8.91914 31.609 10.118 31.609C11.3133 31.6125 12.2871 33.8484 12.2871 36.6117Z" fill="#2F2F2F"/>
<path d="M31.9148 36.6117C31.9148 39.3715 30.941 41.6109 29.7457 41.6109C28.5468 41.6109 27.573 39.3715 27.573 36.6117C27.573 33.8484 28.5468 31.609 29.7457 31.609C30.941 31.6125 31.9148 33.8484 31.9148 36.6117Z" fill="#2F2F2F"/>
<path d="M28.8 41.1222C28.8 41.1222 29.3766 41.857 30.0094 42.1031C31.4262 42.6621 33.395 42.4547 34.5833 41.182L33.9469 38.1375L29.9391 38.7422L28.8 41.1222Z" fill="#2F2F2F"/>
<path d="M40.078 4.29257H6.08545C2.55928 4.29257 0.0561523 6.44765 0.0561523 9.61874V32.2383C0.0561523 35.7609 2.91436 38.6191 6.43701 38.6191H26.0085C31.1483 38.6191 32.8288 37.9547 35.9718 35.884C39.2026 33.757 44.9999 30.2414 44.9999 27.3586V9.5871C44.9999 6.06445 43.6007 4.29257 40.078 4.29257Z" fill="#FCC21B"/>
<mask id="mask0_123_49" style="mask-type:luminance" maskUnits="userSpaceOnUse" x="0" y="4" width="45" height="35">
<path d="M40.078 4.29257H6.08545C2.55928 4.29257 0.0561523 6.44765 0.0561523 9.61874V32.2383C0.0561523 35.7609 2.91436 38.6191 6.43701 38.6191H26.0085C31.1483 38.6191 32.8288 37.9547 35.9718 35.884C39.2026 33.757 44.9999 30.2414 44.9999 27.3586V9.5871C44.9999 6.06445 43.6007 4.29257 40.078 4.29257Z" fill="white"/>
</mask>
<g mask="url(#mask0_123_49)">
<path d="M-0.133789 28.8527H30.2166V39.1992H-0.133789V28.8527ZM30.2166 41.3402L46.167 30.9164V19.2832L30.2166 28.8527V41.3402Z" fill="#ED6C30"/>
</g>
<path d="M28.1637 23.6356C28.1637 24.8168 27.204 25.7801 26.0192 25.7801H5.41763C4.23638 25.7801 3.27661 24.8168 3.27661 23.6356V10.016C3.27661 8.83477 4.23638 7.87149 5.41763 7.87149H26.0157C27.2004 7.87149 28.1602 8.83477 28.1602 10.016V23.6356H28.1637Z" fill="#40C0E7"/>
<mask id="mask1_123_49" style="mask-type:luminance" maskUnits="userSpaceOnUse" x="3" y="7" width="26" height="19">
<path d="M28.1637 23.6356C28.1637 24.8168 27.204 25.7801 26.0192 25.7801H5.41763C4.23638 25.7801 3.27661 24.8168 3.27661 23.6356V10.016C3.27661 8.83477 4.23638 7.87149 5.41763 7.87149H26.0157C27.2004 7.87149 28.1602 8.83477 28.1602 10.016V23.6356H28.1637Z" fill="white"/>
</mask>
<g mask="url(#mask1_123_49)">
<path d="M2.32397 7.04532H29.3943V13.3313H2.32397V7.04532Z" fill="#2F2F2F"/>
</g>
<mask id="mask2_123_49" style="mask-type:luminance" maskUnits="userSpaceOnUse" x="3" y="7" width="26" height="19">
<path d="M28.1637 23.6356C28.1637 24.8168 27.204 25.7801 26.0192 25.7801H5.41763C4.23638 25.7801 3.27661 24.8168 3.27661 23.6356V10.016C3.27661 8.83477 4.23638 7.87149 5.41763 7.87149H26.0157C27.2004 7.87149 28.1602 8.83477 28.1602 10.016V23.6356H28.1637Z" fill="white"/>
</mask>
<g mask="url(#mask2_123_49)">
<path d="M7.11572 9.12656H24.5989V11.9742H7.11572V9.12656Z" fill="white"/>
</g>
<path d="M38.1165 17.216C38.1165 18.1301 37.5821 19.1707 36.8825 19.568L34.2774 21.048C33.3141 21.5894 32.4739 21.1078 32.4739 19.923V10.2832C32.4739 9.10195 33.3176 8.14218 34.2774 8.14218H36.8825C37.5821 8.14218 38.1165 8.88398 38.1165 9.79101V17.216ZM42.3071 9.41484C42.3071 8.72226 42.0504 8.15976 41.72 8.15976H40.5458C40.1379 8.15976 39.7864 8.83124 39.7864 9.6539V16.3547C39.7864 17.1773 40.1379 17.6344 40.5458 17.3777L41.72 16.6605C42.0504 16.4566 42.3071 15.7394 42.3071 15.0469V9.41484Z" fill="#40C0E7"/>
<path d="M5.65303 35.4445C6.98692 35.4445 8.06826 34.3648 8.06826 33.0328C8.06826 31.7009 6.98692 30.6211 5.65303 30.6211C4.31913 30.6211 3.23779 31.7009 3.23779 33.0328C3.23779 34.3648 4.31913 35.4445 5.65303 35.4445Z" fill="white"/>
<path d="M27.8192 33.0328C27.8192 34.3652 26.7364 35.4445 25.4005 35.4445C24.0716 35.4445 22.9888 34.3652 22.9888 33.0328C22.9888 31.6969 24.0681 30.6211 25.4005 30.6211C26.7364 30.6211 27.8192 31.6969 27.8192 33.0328Z" fill="white"/>
<path d="M35.8665 36.6117C35.8665 39.3715 34.8926 41.6109 33.6973 41.6109C32.4985 41.6109 31.5247 39.3715 31.5247 36.6117C31.5247 33.8484 32.4985 31.609 33.6973 31.609C34.8926 31.6125 35.8665 33.8484 35.8665 36.6117ZM44.1071 30.6879C44.1071 33.2719 43.3864 35.3637 42.4969 35.3637C41.6075 35.3637 40.8868 33.2719 40.8868 30.6879C40.8868 28.1039 41.6075 26.0086 42.4969 26.0086C43.3899 26.0086 44.1071 28.1074 44.1071 30.6879Z" fill="#2F2F2F"/>
</svg>
