<svg width="56" height="40" viewBox="0 0 56 40" fill="none" xmlns="http://www.w3.org/2000/svg">
<g id="Frame 17">
<path id="Vector" d="M27.7407 5.58533C27.7407 5.58533 27.6516 2.75586 29.8799 2.62112C32.0192 2.48638 32.0192 5.58533 32.0192 5.58533" fill="#92D3F5"/>
<path id="Vector_2" d="M53.8836 22.0189L52.9031 21.2105C52.5466 20.941 52.3683 20.4021 52.4574 19.8631C52.7248 17.3031 52.9031 8.41051 43.8114 4.36841C43.6332 4.23367 43.4549 4.23367 43.2766 4.23367L25.8064 4.36841C25.4498 4.36841 25.0933 4.50315 24.8259 4.77262L15.6451 14.0694C15.4668 14.2042 15.2886 14.3389 15.1103 14.3389C13.4168 14.2042 11.8124 14.4737 10.1188 14.8779C5.30557 16.36 3.34463 20.2673 2.63156 22.2884C2.45329 22.6926 2.45329 23.2315 2.45329 23.6357C2.54242 26.8694 1.11628 30.5073 3.25549 33.4715L20.5475 33.3368L38.7308 32.6631L53.0814 32.3936C53.8836 32.2589 55.2206 30.5073 55.5771 29.4294C57.0924 25.7915 54.0618 22.1536 53.8836 22.0189Z" fill="#FFAC33"/>
<g id="Group">
<path id="Vector_3" d="M26.7598 3.96848C26.7598 3.96848 26.6706 1.13901 28.899 1.00427C31.0382 0.869533 31.0382 3.96848 31.0382 3.96848" stroke="black" stroke-width="2" stroke-miterlimit="10" stroke-linecap="round" stroke-linejoin="round"/>
<path id="Vector_4" d="M38.0797 33.0716L19.7181 33.6105M2.87181 33.6105C2.06961 33.3411 1.35654 32.9368 1.2674 32.2632C1.17827 30.9158 1 27.1432 1 25.3916C1 24.7179 1.08913 23.9095 1.35654 23.3705C2.33701 20.6758 5.63496 14.2085 14.6375 14.7474L23.8183 5.45057C24.264 5.04636 24.7988 4.77689 25.2444 4.77689L42.7147 4.64215C42.9821 4.64215 43.2495 4.64215 43.5169 4.77689C45.4778 5.58531 53.9456 10.1664 52.7868 21.7537L53.7673 22.5621C54.213 22.8316 54.5695 23.5053 54.6586 24.179C55.0152 26.0653 54.926 28.0863 54.4804 29.9726" stroke="black" stroke-width="2" stroke-linecap="round" stroke-linejoin="round"/>
<path id="Vector_5" d="M17.8462 18.1158L44.7646 17.8464V11.7832" stroke="black" stroke-width="2" stroke-linecap="round" stroke-linejoin="round"/>
<path id="Vector_6" d="M11.0722 39C13.5335 39 15.5289 35.9838 15.5289 32.2632C15.5289 28.5425 13.5335 25.5263 11.0722 25.5263C8.61081 25.5263 6.61548 28.5425 6.61548 32.2632C6.61548 35.9838 8.61081 39 11.0722 39Z" stroke="black" stroke-width="2" stroke-linecap="round" stroke-linejoin="round"/>
<path id="Vector_7" d="M46.5475 39C49.0089 39 51.0042 35.9838 51.0042 32.2632C51.0042 28.5425 49.0089 25.5263 46.5475 25.5263C44.0862 25.5263 42.0908 28.5425 42.0908 32.2632C42.0908 35.9838 44.0862 39 46.5475 39Z" stroke="black" stroke-width="2" stroke-linecap="round" stroke-linejoin="round"/>
<path id="Vector_8" d="M6.6155 22.1579L5.01109 25.1221L1.71313 24.9874" stroke="black" stroke-width="2" stroke-linecap="round" stroke-linejoin="round"/>
<path id="Vector_9" d="M17.1333 22.8316H40.3081" stroke="black" stroke-width="2" stroke-miterlimit="10" stroke-linecap="round" stroke-linejoin="round"/>
</g>
<path id="Vector_10" d="M10.9831 26.8694C9.02213 26.8694 7.41772 29.2947 7.41772 32.2589C7.41772 35.2231 9.02213 37.6484 10.9831 37.6484C12.944 37.6484 14.5484 35.2231 14.5484 32.2589C14.5484 29.2947 12.944 26.8694 10.9831 26.8694ZM46.4584 26.8694C44.4974 26.8694 42.893 29.2947 42.893 32.2589C42.893 35.2231 44.4974 37.6484 46.4584 37.6484C48.4193 37.6484 50.0237 35.2231 50.0237 32.2589C50.0237 29.2947 48.4193 26.8694 46.4584 26.8694Z" fill="#9B9B9A"/>
<path id="Vector_11" d="M44.9125 17.1684V11.3747C44.9125 10.1621 44.1995 9.0842 43.3972 9.0842H24.5009C24.4117 9.0842 24.3226 9.0842 24.3226 9.21894L17.1919 16.8989C17.0136 17.0337 17.0136 17.4379 17.1027 17.7073C17.1919 17.8421 17.281 17.9768 17.3701 17.9768C22.3616 17.9768 41.6146 17.7073 44.4669 17.8421C44.7343 17.8421 44.9125 17.5726 44.9125 17.1684C44.9125 17.3031 44.9125 17.3031 44.9125 17.1684Z" fill="#40C0E7"/>
<path id="Vector_12" d="M17.0442 23.6357H40.219" stroke="#5C913B" stroke-width="2.1" stroke-miterlimit="10" stroke-linecap="round" stroke-linejoin="round"/>
</g>
</svg>
