<svg width="96" height="82" viewBox="0 0 96 82" fill="none" xmlns="http://www.w3.org/2000/svg">
<path d="M80.5 31.2402H72.5C69.5 19.6483 56.5 11.9204 43 14.4964C33 16.2137 25 22.6536 23 31.2402H19.5C14.5 31.2402 10 35.1042 10 39.3975V44.9788C10 47.9841 13 50.5601 16.5 50.5601H18C18 44.9788 23.5 40.2561 30 40.2561C36.5 40.2561 42 44.9788 42 50.5601H58C58 44.9788 63.5 40.2561 70 40.2561C76.5 40.2561 82 44.9788 82 50.5601H83.5C87 50.5601 90 47.9841 90 44.9788V39.8268C90 35.1042 85.5 31.2402 80.5 31.2402ZM31 31.2402C33.5 23.083 43.5 18.7897 52.5 20.9363C58 22.2243 62.5 26.0883 64.5 31.2402H31Z" fill="#FFA902"/>
<path d="M69.7045 62H63.517V44.5455H69.7557C71.5114 44.5455 73.0227 44.8949 74.2898 45.5938C75.5568 46.2869 76.5313 47.2841 77.2131 48.5852C77.9006 49.8864 78.2443 51.4432 78.2443 53.2557C78.2443 55.0739 77.9006 56.6364 77.2131 57.9432C76.5313 59.25 75.5511 60.2528 74.2727 60.9517C73 61.6506 71.4773 62 69.7045 62ZM67.2074 58.8381H69.5511C70.642 58.8381 71.5597 58.6449 72.304 58.2585C73.054 57.8665 73.6165 57.2614 73.9915 56.4432C74.3722 55.6193 74.5625 54.5568 74.5625 53.2557C74.5625 51.9659 74.3722 50.9119 73.9915 50.0938C73.6165 49.2756 73.0568 48.6733 72.3125 48.2869C71.5682 47.9006 70.6506 47.7074 69.5597 47.7074H67.2074V58.8381Z" fill="white"/>
<path d="M43.0682 59.1065C42.5166 59.1065 42.0395 58.9893 41.6371 58.755C41.237 58.5182 40.928 58.1892 40.7102 57.7678C40.4924 57.344 40.3835 56.8527 40.3835 56.294C40.3835 55.7306 40.4924 55.2382 40.7102 54.8168C40.928 54.393 41.237 54.0639 41.6371 53.8295C42.0395 53.5928 42.5166 53.4744 43.0682 53.4744C43.6198 53.4744 44.0956 53.5928 44.4957 53.8295C44.8982 54.0639 45.2083 54.393 45.4261 54.8168C45.6439 55.2382 45.7528 55.7306 45.7528 56.294C45.7528 56.8527 45.6439 57.344 45.4261 57.7678C45.2083 58.1892 44.8982 58.5182 44.4957 58.755C44.0956 58.9893 43.6198 59.1065 43.0682 59.1065ZM43.0753 57.9347C43.3262 57.9347 43.5357 57.8636 43.7038 57.7216C43.8719 57.5772 43.9986 57.3807 44.0838 57.1321C44.1714 56.8835 44.2152 56.6006 44.2152 56.2834C44.2152 55.9661 44.1714 55.6832 44.0838 55.4347C43.9986 55.1861 43.8719 54.9896 43.7038 54.8452C43.5357 54.7008 43.3262 54.6286 43.0753 54.6286C42.822 54.6286 42.6089 54.7008 42.4361 54.8452C42.2656 54.9896 42.1366 55.1861 42.049 55.4347C41.9638 55.6832 41.9212 55.9661 41.9212 56.2834C41.9212 56.6006 41.9638 56.8835 42.049 57.1321C42.1366 57.3807 42.2656 57.5772 42.4361 57.7216C42.6089 57.8636 42.822 57.9347 43.0753 57.9347ZM47.7649 59V51.7273H50.6342C51.1835 51.7273 51.6522 51.8255 52.0405 52.022C52.4311 52.2161 52.7282 52.492 52.9318 52.8494C53.1378 53.2045 53.2408 53.6224 53.2408 54.103C53.2408 54.5859 53.1366 55.0014 52.9283 55.3494C52.7199 55.6951 52.4181 55.9602 52.0227 56.1449C51.6297 56.3295 51.1539 56.4219 50.5952 56.4219H48.674V55.1861H50.3466C50.6402 55.1861 50.884 55.1458 51.0781 55.0653C51.2723 54.9848 51.4167 54.8641 51.5114 54.7031C51.6084 54.5421 51.657 54.3421 51.657 54.103C51.657 53.8615 51.6084 53.6579 51.5114 53.4922C51.4167 53.3265 51.2711 53.201 51.0746 53.1158C50.8804 53.0282 50.6354 52.9844 50.3395 52.9844H49.3026V59H47.7649ZM51.6925 55.6903L53.5 59H51.8026L50.0341 55.6903H51.6925ZM56.233 61.0455C56.0412 61.0455 55.8613 61.0301 55.6932 60.9993C55.5275 60.9709 55.3902 60.9342 55.2812 60.8892L55.6222 59.7599C55.7997 59.8144 55.9595 59.844 56.1016 59.8487C56.246 59.8535 56.3703 59.8203 56.4744 59.7493C56.581 59.6783 56.6674 59.5575 56.7337 59.3871L56.8224 59.1562L54.8658 53.5455H56.4567L57.5859 57.5511H57.6428L58.7827 53.5455H60.3842L58.2642 59.5895C58.1624 59.883 58.0239 60.1387 57.8487 60.3565C57.6759 60.5767 57.4569 60.746 57.1918 60.8643C56.9266 60.9851 56.607 61.0455 56.233 61.0455Z" fill="white"/>
<path d="M37.6225 50.1836H33.734C33.663 49.6805 33.518 49.2337 33.299 48.843C33.08 48.4465 32.7989 48.1091 32.4556 47.831C32.1123 47.5528 31.7158 47.3397 31.266 47.1918C30.8221 47.0438 30.3397 46.9698 29.8189 46.9698C28.8778 46.9698 28.0581 47.2036 27.3597 47.6712C26.6613 48.1328 26.1198 48.8075 25.7351 49.6953C25.3504 50.5772 25.158 51.6484 25.158 52.9091C25.158 54.2053 25.3504 55.2943 25.7351 56.1761C26.1257 57.058 26.6702 57.7238 27.3686 58.1737C28.067 58.6235 28.8749 58.8484 29.7923 58.8484C30.3072 58.8484 30.7836 58.7803 31.2216 58.6442C31.6655 58.508 32.0591 58.3098 32.4023 58.0494C32.7456 57.783 33.0297 57.4605 33.2546 57.0817C33.4854 56.7029 33.6452 56.2708 33.734 55.7855L37.6225 55.8033C37.5219 56.6378 37.2704 57.4427 36.8679 58.218C36.4714 58.9875 35.9357 59.677 35.261 60.2866C34.5922 60.8903 33.7932 61.3697 32.864 61.7248C31.9407 62.074 30.8961 62.2486 29.7301 62.2486C28.1084 62.2486 26.6584 61.8816 25.38 61.1477C24.1075 60.4138 23.1013 59.3514 22.3615 57.9606C21.6276 56.5697 21.2607 54.8859 21.2607 52.9091C21.2607 50.9264 21.6335 49.2396 22.3793 47.8487C23.125 46.4579 24.1371 45.3984 25.4155 44.6705C26.6939 43.9366 28.1321 43.5696 29.7301 43.5696C30.7836 43.5696 31.7602 43.7176 32.6598 44.0135C33.5653 44.3094 34.3673 44.7415 35.0657 45.3097C35.7641 45.8719 36.3323 46.5614 36.7702 47.3782C37.2141 48.195 37.4982 49.1301 37.6225 50.1836Z" fill="white"/>
</svg>
