<svg width="23" height="43" viewBox="0 0 23 43" fill="none" xmlns="http://www.w3.org/2000/svg">
<g id="Layer_1">
<path id="Vector" d="M18.188 43.0002H5.13818L5.24972 39.2316H17.9928L18.188 43.0002Z" fill="#4D4E4C"/>
<path id="Vector_2" d="M21.2639 26.7925C21.2639 26.7925 23.1322 30.6402 22.9928 31.6417C22.8533 32.6431 21.5707 37.3077 21.5707 37.3077C21.5707 37.3077 22.0447 39.1525 21.8495 39.4687C21.6543 39.785 20.6429 40.9357 20.0834 40.9621C19.5257 40.9884 18.8935 40.7953 18.3778 40.7337C17.7456 40.658 17.388 40.6941 17.3322 40.5756L17.3599 40.6195C17.3599 40.6195 16.8767 40.6635 16.8859 40.479C16.895 40.2946 17.332 40.0749 17.332 40.0749L18.838 39.7586L19.3678 28.9536L21.2639 26.7925Z" fill="#F8D2B5"/>
<path id="Vector_3" d="M3.06543 27.8246C3.06543 27.8246 3.71591 28.8088 3.67888 29.3181L4.81255 27.5788L4.87702 28.3555C5.04611 30.0539 5.29193 32.345 5.44474 32.9547H17.6023C17.6835 32.6315 18.2436 27.7103 18.2436 27.7103L19.0525 29.0588C19.0525 29.0588 20.9486 25.6064 20.7813 24.157C20.614 22.7075 19.6425 21.5857 19.0246 21.3635C17.8535 20.9418 14.3383 20.5672 14.3383 20.5672C13.7487 19.7399 13.0734 19.4141 13.0734 19.4141L9.94125 19.3505C9.94125 19.3505 9.13305 19.9016 8.5941 20.6395C8.5941 20.6395 5.44496 20.9682 4.46901 21.179L3.29787 21.8115L3.06543 27.8246Z" fill="#FFAC33"/>
<path id="Vector_4" d="M4.80362 27.7148L3.63248 29.4278C3.43729 28.8216 1.20654 26.1335 1.20654 26.1335C1.37385 25.5538 2.71229 22.7602 2.99114 22.2595C3.26998 21.7588 3.71613 21.4426 4.46901 21.179C4.85693 21.043 5.74454 20.8965 6.47667 20.8101C6.47667 20.8101 5.61226 21.6534 4.74785 26.766L4.80362 27.7148Z" fill="#3E721D"/>
<path id="Vector_5" d="M18.1882 27.7148L19.3593 29.4278C19.5545 28.8216 21.7853 26.1335 21.7853 26.1335C21.618 25.5538 20.2795 22.7602 20.0007 22.2595C19.7218 21.7588 19.2757 21.4426 18.5228 21.179C18.1351 21.043 17.2475 20.8965 16.5151 20.8101C16.5151 20.8101 17.3795 21.6534 18.244 26.766L18.1882 27.7148Z" fill="#3E721D"/>
<path id="Vector_6" d="M1.73626 26.7925C1.73626 26.7925 -0.131989 30.6402 0.00743254 31.6417C0.146854 32.6431 1.42953 37.3077 1.42953 37.3077C1.42953 37.3077 0.955498 39.1525 1.15069 39.4687C1.34588 39.785 2.3573 40.9357 2.91677 40.9621C3.47445 40.9884 4.10665 40.7953 4.62239 40.7337C5.25459 40.658 5.61217 40.6941 5.66794 40.5756L5.64028 40.6195C5.64028 40.6195 6.12346 40.6635 6.11432 40.479C6.10517 40.2946 5.66817 40.0749 5.66817 40.0749L4.16219 39.7586L3.53022 29.1555L1.73626 26.7925Z" fill="#F8D2B5"/>
<path id="Vector_7" d="M19.6289 29.0852C19.6289 29.0852 20.9861 27.0296 21.2277 26.9242L21.66 27.7315C20.8415 28.5052 20.2417 30.6171 20.2417 30.6171L19.6289 29.0852Z" fill="#DB9D88"/>
<path id="Vector_8" d="M3.36303 29.0852C3.36303 29.0852 2.00585 27.0296 1.76426 26.9242L1.29736 27.7093C1.59651 28.0053 2.42701 28.8286 2.99875 30.2049L3.36303 29.0852Z" fill="#DB9D88"/>
<path id="Vector_9" d="M10.1352 19.726L10.1849 19.2774V18.768L12.7974 18.6544V19.2774L12.8444 19.699L12.9897 19.8595C13.867 20.5371 11.4913 21.6125 11.4913 21.6125C11.4913 21.6125 9.11531 20.5371 9.99288 19.8595L10.1352 19.726Z" fill="#F8D2B5"/>
<path id="Vector_10" d="M10.2391 18.7659L10.1289 20.3239C10.1289 20.3239 11.9543 20.3066 12.7103 19.5297L12.7973 18.8688L10.2391 18.7659Z" fill="#DB9D88"/>
<path id="Vector_11" d="M10.8818 21.6621H12.09V25.7206H10.8818V21.6621Z" fill="#3E721D"/>
<path id="Vector_12" d="M9.99293 19.8595C9.11536 20.5371 11.5284 21.6126 11.5284 21.6126C11.5284 21.6126 10.8734 23.3296 9.85619 23.4255C9.33598 23.4748 8.64355 22.1451 8.64355 20.6567C8.64355 20.6567 9.49302 19.6017 9.6726 19.4859C9.85195 19.3704 10.1654 19.262 10.2223 19.2774C10.2794 19.293 10.2035 19.7779 10.2035 19.7779L9.99293 19.8595Z" fill="#3E721D"/>
<path id="Vector_13" d="M12.9895 19.8594C13.8669 20.537 11.4541 21.6124 11.4541 21.6124C11.4541 21.6124 12.1088 23.3294 13.1263 23.4253C13.6465 23.4747 14.3389 22.145 14.3389 20.6565C14.3389 20.6565 14.0766 20.1716 13.9463 20.0253C13.8156 19.879 13.2525 19.3468 13.1223 19.3085C12.9918 19.2699 12.702 19.1849 12.6852 19.2773C12.6692 19.3698 12.7232 19.8138 12.7477 19.837C12.772 19.8604 13 19.8326 13 19.8326" fill="#3E721D"/>
<path id="Vector_14" d="M18.7877 10.1057C18.9124 9.47571 19.0007 8.89762 19.0572 8.36485C18.9952 6.99972 14.9945 5.26395 11.1014 5.33584C7.4205 5.40394 3.83056 7.21793 3.90797 8.10363C3.97779 8.9012 3.90998 8.90036 4.24191 10.1044L4.26533 10.7434L18.7607 10.7179L18.7877 10.1057Z" fill="#564137"/>
<path id="Vector_15" d="M4.43042 7.98071C4.43042 7.98071 4.18794 8.80443 4.53728 10.1303L4.24193 10.1044C4.24193 10.1044 3.72305 8.70091 3.86203 8.29232L4.43042 7.98071Z" fill="#997B6F"/>
<path id="Vector_16" d="M4.96884 10.5925C4.96884 10.5925 3.59493 9.55143 3.07896 11.1841C2.48625 13.0594 4.41986 15.2213 5.64677 15.3531" fill="#F8D2B5"/>
<path id="Vector_17" d="M3.83577 12.9645C4.11796 13.5715 4.65356 13.9362 5.03123 13.7793C5.40934 13.6221 5.48652 13.0029 5.20366 12.3954C4.92147 11.7885 4.38587 11.4235 4.00821 11.5808C3.6301 11.7377 3.55336 12.3571 3.83577 12.9645Z" fill="#DB9D88"/>
<path id="Vector_18" d="M17.9774 10.4396C17.9774 10.4396 19.3232 9.36667 19.8822 10.9865C20.524 12.8475 18.6479 15.054 17.4248 15.2147" fill="#F8D2B5"/>
<path id="Vector_19" d="M19.1725 12.7841C18.9064 13.3976 18.3808 13.775 17.9989 13.627C17.6168 13.4784 17.5235 12.8613 17.7901 12.2473C18.0565 11.6338 18.5823 11.2566 18.9639 11.405C19.3461 11.553 19.4391 12.1701 19.1725 12.7841Z" fill="#DB9D88"/>
<path id="Vector_20" d="M18.227 9.7308C18.1681 11.1537 17.8888 14.2055 16.9941 16.135C16.1183 18.0238 14.1769 18.8754 12.1413 19.3694C11.4815 19.4996 10.8586 19.3694 10.8586 19.3694C8.82309 18.8754 6.736 17.9547 6.00588 16.135C5.21531 14.1648 4.83184 11.1537 4.77295 9.7308C5.16199 8.24255 5.83501 7.04903 6.38712 6.25062L6.61108 6.24324C7.2377 6.20761 7.84624 6.03683 8.40103 5.80682L8.56298 6.01491C11.1841 6.12032 13.6471 4.67972 14.4557 3.65192C14.4557 3.65192 14.7814 6.20803 17.4674 7.54343L17.6147 7.54322C17.85 8.10445 18.0704 8.74137 18.2268 9.4251L18.227 9.7308Z" fill="#F8D2B5"/>
<path id="Vector_21" d="M7.71097 1.30548C7.71097 1.30548 9.51386 2.43005 11.7181 2.49857C11.7181 2.49857 12.522 2.75052 10.9139 2.82072C9.30551 2.89156 7.60925 2.72247 6.58936 2.25548L7.71097 1.30548Z" fill="#B7A293"/>
<path id="Vector_22" d="M7.74696 12.6894C7.74696 13.0004 7.22118 13.2523 6.57292 13.2523C5.92467 13.2523 5.39844 13.0004 5.39844 12.6894C5.39844 12.3786 5.92467 12.1269 6.57292 12.1269C7.22118 12.1269 7.74696 12.3786 7.74696 12.6894Z" fill="#EB9294"/>
<path id="Vector_23" d="M15.2158 12.6894C15.2158 13.0004 15.7416 13.2523 16.3899 13.2523C17.0381 13.2523 17.5641 13.0004 17.5641 12.6894C17.5641 12.3786 17.0381 12.1269 16.3899 12.1269C15.7416 12.1269 15.2158 12.3786 15.2158 12.6894Z" fill="#EB9294"/>
<path id="Vector_24" d="M9.97015 10.7828C9.97015 11.7063 9.34622 12.4547 8.57661 12.4547C7.80611 12.4547 7.18262 11.7063 7.18262 10.7828C7.18262 9.85877 7.80611 9.11011 8.57661 9.11011C9.34622 9.11011 9.97015 9.85877 9.97015 10.7828Z" fill="#FFFFFE"/>
<path id="Vector_25" d="M13.0303 10.7828C13.0303 11.7063 13.6542 12.4547 14.424 12.4547C15.1943 12.4547 15.8178 11.7063 15.8178 10.7828C15.8178 9.85877 15.1943 9.11011 14.424 9.11011C13.6542 9.11011 13.0303 9.85877 13.0303 10.7828Z" fill="#FFFFFE"/>
<path id="Vector_26" d="M7.15283 10.4707C7.15283 10.4707 7.30095 9.4501 8.30947 9.16654C9.48909 8.8349 9.79158 9.96074 9.79158 9.96074C9.79158 9.96074 9.17723 9.52874 8.44532 9.70521C7.75491 9.87134 7.15283 10.4707 7.15283 10.4707Z" fill="#D8E9F1"/>
<path id="Vector_27" d="M15.8475 10.4707C15.8475 10.4707 15.6991 9.4501 14.6908 9.16654C13.5114 8.8349 13.2085 9.96074 13.2085 9.96074C13.2085 9.96074 13.8231 9.52874 14.5548 9.70521C15.2456 9.87134 15.8475 10.4707 15.8475 10.4707Z" fill="#D8E9F1"/>
<path id="Vector_28" d="M13.2603 10.7681C13.2603 11.3863 13.6161 11.8882 14.0546 11.8882C14.493 11.8882 14.849 11.3863 14.849 10.7681C14.849 10.1495 14.493 9.64838 14.0546 9.64838C13.6161 9.64838 13.2603 10.1495 13.2603 10.7681Z" fill="#1A1919"/>
<path id="Vector_29" d="M10.2351 8.22488C10.1633 8.29994 9.77466 8.01194 9.28144 7.94975C9.03695 7.91306 8.77305 7.92128 8.54753 7.94975C8.3191 7.97378 8.17008 8.02818 8.08041 8.06254C7.90998 8.12853 7.73442 8.24428 7.59277 8.33114C7.44978 8.41653 7.32999 8.4764 7.22224 8.39924C7.11673 8.32418 7.15956 8.17175 7.30255 8.02038C7.44353 7.86794 7.67888 7.73154 7.89793 7.64742C7.95303 7.62675 8.03356 7.59639 8.13841 7.5711C8.24214 7.5439 8.3742 7.52661 8.50023 7.51712C8.76012 7.49667 9.07733 7.50721 9.36799 7.58627C9.65955 7.66344 9.90895 7.80849 10.0571 7.943C10.207 8.07751 10.269 8.19009 10.2351 8.22488Z" fill="#1A1919"/>
<path id="Vector_30" d="M12.8026 8.22488C12.7684 8.18988 12.8307 8.07751 12.9806 7.94279C13.1287 7.80849 13.3781 7.66344 13.6697 7.58627C13.9601 7.50721 14.2775 7.49667 14.5374 7.51712C14.6635 7.52661 14.7955 7.5439 14.8992 7.5711C15.0041 7.59639 15.0846 7.62675 15.1397 7.64742C15.3588 7.73154 15.5941 7.86773 15.7351 8.02016C15.8783 8.17175 15.9209 8.32397 15.8154 8.39924C15.7077 8.4764 15.5879 8.41653 15.4451 8.33114C15.3035 8.24428 15.1279 8.12853 14.957 8.06254C14.8676 8.02818 14.7188 7.97378 14.4901 7.94954C14.2646 7.92129 14.0007 7.91306 13.7562 7.94954C13.2628 8.01194 12.8742 8.29994 12.8026 8.22488Z" fill="#1A1919"/>
<path id="Vector_31" d="M9.73966 10.7681C9.73966 11.3863 9.38408 11.8882 8.94529 11.8882C8.50717 11.8882 8.15137 11.3863 8.15137 10.7681C8.15137 10.1495 8.50717 9.64838 8.94529 9.64838C9.38408 9.64838 9.73966 10.1495 9.73966 10.7681Z" fill="#1A1919"/>
<path id="Vector_32" d="M9.70137 10.3677C9.70137 10.513 9.59251 10.6308 9.45799 10.6308C9.32393 10.6308 9.21484 10.513 9.21484 10.3677C9.21484 10.2216 9.32393 10.1033 9.45799 10.1033C9.59251 10.1033 9.70137 10.2216 9.70137 10.3677Z" fill="#FFFFFE"/>
<path id="Vector_33" d="M14.8061 10.3677C14.8061 10.513 14.6972 10.6308 14.5625 10.6308C14.4284 10.6308 14.3193 10.513 14.3193 10.3677C14.3193 10.2216 14.4284 10.1033 14.5625 10.1033C14.6972 10.1033 14.8061 10.2216 14.8061 10.3677Z" fill="#FFFFFE"/>
<path id="Vector_34" d="M3.83496 8.86741C3.83496 8.54484 5.26665 7.30389 11.4855 7.30389C17.7053 7.30389 19.1376 8.54484 19.1376 8.86741L18.5773 5.5209L5.34651 4.99487C5.34651 4.99487 4.38752 5.55863 4.30766 5.97144C4.22802 6.38551 3.83496 8.86741 3.83496 8.86741Z" fill="#3E721D"/>
<path id="Vector_35" d="M11.4857 0C13.6116 0 16.4763 0.526023 17.6718 2.18526C18.5931 3.46311 19.2186 5.59777 19.2186 8.64912C19.2186 8.03139 17.4677 5.72237 11.4857 5.72237C5.20148 5.72237 3.75439 8.03139 3.75439 8.64912C3.75439 5.26972 4.38034 3.46311 5.30075 2.18526C6.49665 0.526023 9.36137 0 11.4857 0Z" fill="#3E721D"/>
<path id="Vector_36" d="M14.6064 3.78221C14.6064 4.47775 13.2048 5.04172 11.4762 5.04172C9.74675 5.04172 8.34473 4.47775 8.34473 3.78221C8.34473 3.0871 9.74675 2.52313 11.4762 2.52313C13.2048 2.52313 14.6064 3.0871 14.6064 3.78221Z" fill="#FFAC33"/>
<path id="Vector_37" d="M11.352 15.1047C13.0429 15.1047 13.9129 14.8174 13.9129 14.8174C13.9278 15.5005 13.6905 18.2196 11.4361 18.2196C9.18171 18.2196 8.94459 15.5005 8.95909 14.8174C8.95909 14.8174 9.66088 15.1047 11.352 15.1047Z" fill="#DC6376"/>
<path id="Vector_38" d="M11.4658 15.5825C12.3333 15.5825 13.1308 15.8222 13.7726 16.1768C13.8937 15.6634 13.9182 15.0487 13.9129 14.8174C13.9129 14.8174 13.038 14.9945 11.3469 14.9945C9.65573 14.9945 8.95907 14.8174 8.95907 14.8174C8.95416 15.0531 8.97914 15.6809 9.10629 16.2053C9.7231 15.8079 10.5746 15.5825 11.4658 15.5825Z" fill="#B35251"/>
<path id="Vector_39" d="M2.70068 27.6691H20.2992V40.0748H2.70068V27.6691Z" fill="#C7A873"/>
<path id="Vector_40" d="M10.6035 27.7412H12.6948V30.5874H10.6035V27.7412Z" fill="#F5E1AD"/>
</g>
</svg>
