<svg width="48" height="48" viewBox="0 0 48 48" fill="none" xmlns="http://www.w3.org/2000/svg">
<g id="system-users 1">
<g id="layer1">
<path id="path4177" fill-rule="evenodd" clip-rule="evenodd" d="M33.2423 30.0051C33.2521 31.0995 32.8615 32.1842 32.0929 33.1968C31.3244 34.2095 30.1931 35.1301 28.764 35.9059C27.335 36.6816 25.6363 37.2972 23.7655 37.7172C21.8948 38.1373 19.8888 38.3535 17.863 38.3535C15.8371 38.3535 13.8311 38.1373 11.9604 37.7172C10.0896 37.2972 8.39094 36.6816 6.96187 35.9059C5.53279 35.1301 4.4015 34.2095 3.63298 33.1968C2.86446 32.1842 2.47384 31.0995 2.48358 30.0051C2.47384 28.9106 2.86446 27.8259 3.63298 26.8133C4.4015 25.8006 5.53279 24.88 6.96187 24.1043C8.39094 23.3285 10.0896 22.7129 11.9604 22.2929C13.8311 21.8728 15.8371 21.6566 17.863 21.6566C19.8888 21.6566 21.8948 21.8728 23.7655 22.2929C25.6363 22.7129 27.335 23.3285 28.764 24.1043C30.1931 24.88 31.3244 25.8006 32.0929 26.8133C32.8615 27.8259 33.2521 28.9106 33.2423 30.0051Z" fill="url(#paint0_radial_21_491)"/>
<path id="path2329" fill-rule="evenodd" clip-rule="evenodd" d="M12.861 34.636H23.468C26.473 34.636 29.448 33.534 30.539 30.393C31.574 27.411 30.716 21.731 23.998 17.135H11.447C4.72941 21.378 3.89001 27.18 5.43661 30.57C7.01211 34.024 9.67921 34.636 12.861 34.636Z" fill="url(#paint1_radial_21_491)" stroke="#404604" stroke-linecap="round" stroke-linejoin="round"/>
<path id="path3812" fill-rule="evenodd" clip-rule="evenodd" d="M17.9317 19.787C17.9317 19.787 15.7807 21.447 15.9657 23.447C13.9247 21.647 13.8667 18.196 13.8667 18.196L17.9317 19.787Z" fill="#9DB029"/>
<path id="path3838" opacity="0.21519" d="M12.9668 33.572H23.2828C25.9228 33.572 28.5358 32.604 29.4938 29.845C30.4038 27.225 29.3998 22.237 23.4988 18.199H11.9738C6.07373 21.926 5.08633 27.023 6.44483 30C7.82873 33.034 10.1718 33.572 12.9668 33.572Z" stroke="white" stroke-linecap="round" stroke-linejoin="round"/>
<path id="path3810" fill-rule="evenodd" clip-rule="evenodd" d="M18.9106 19.787C18.9106 19.787 21.0616 21.447 20.8766 23.447C22.9176 21.647 22.9766 18.196 22.9766 18.196L18.9106 19.787Z" fill="#9DB029"/>
<path id="path3814" fill-rule="evenodd" clip-rule="evenodd" d="M26.5248 15.509C26.5303 16.65 26.3103 17.7809 25.8774 18.8366C25.4446 19.8924 24.8074 20.8522 24.0025 21.6609C23.1976 22.4697 22.2409 23.1115 21.1872 23.5494C20.1336 23.9873 19.0038 24.2127 17.8628 24.2127C16.7218 24.2127 15.592 23.9873 14.5383 23.5494C13.4847 23.1115 12.5279 22.4697 11.7231 21.6609C10.9182 20.8522 10.281 19.8924 9.84815 18.8366C9.4153 17.7809 9.1953 16.65 9.20078 15.509C9.1953 14.368 9.4153 13.2372 9.84815 12.1814C10.281 11.1257 10.9182 10.1659 11.7231 9.3571C12.5279 8.54834 13.4847 7.90657 14.5383 7.46865C15.592 7.03073 16.7218 6.8053 17.8628 6.8053C19.0038 6.8053 20.1336 7.03073 21.1872 7.46865C22.2409 7.90657 23.1976 8.54834 24.0025 9.3571C24.8074 10.1659 25.4446 11.1257 25.8774 12.1814C26.3103 13.2372 26.5303 14.368 26.5248 15.509Z" fill="url(#paint2_radial_21_491)"/>
<path id="path2327" fill-rule="evenodd" clip-rule="evenodd" d="M26.6498 12.009C26.6553 13.15 26.4353 14.2809 26.0024 15.3366C25.5696 16.3924 24.9324 17.3522 24.1275 18.1609C23.3226 18.9697 22.3659 19.6115 21.3122 20.0494C20.2586 20.4873 19.1288 20.7127 17.9878 20.7127C16.8468 20.7127 15.717 20.4873 14.6633 20.0494C13.6097 19.6115 12.6529 18.9697 11.8481 18.1609C11.0432 17.3522 10.406 16.3924 9.97315 15.3366C9.5403 14.2809 9.3203 13.15 9.32578 12.009C9.3203 10.868 9.5403 9.73715 9.97315 8.68142C10.406 7.62568 11.0432 6.66586 11.8481 5.8571C12.6529 5.04834 13.6097 4.40657 14.6633 3.96865C15.717 3.53073 16.8468 3.3053 17.9878 3.3053C19.1288 3.3053 20.2586 3.53073 21.3122 3.96865C22.3659 4.40657 23.3226 5.04834 24.1275 5.8571C24.9324 6.66586 25.5696 7.62568 26.0024 8.68142C26.4353 9.73715 26.6553 10.868 26.6498 12.009Z" fill="url(#paint3_radial_21_491)" stroke="#6F4709" stroke-linecap="round" stroke-linejoin="round"/>
<path id="path3834" opacity="0.12658" d="M25.5856 12.0091C25.5904 13.0099 25.3974 14.0017 25.0178 14.9277C24.6381 15.8537 24.0793 16.6956 23.3733 17.4049C22.6673 18.1143 21.8282 18.6772 20.904 19.0613C19.9799 19.4454 18.9889 19.6431 17.9882 19.6431C16.9874 19.6431 15.9964 19.4454 15.0723 19.0613C14.1481 18.6772 13.309 18.1143 12.603 17.4049C11.897 16.6956 11.3382 15.8537 10.9585 14.9277C10.5789 14.0017 10.3859 13.0099 10.3907 12.0091C10.3859 11.0083 10.5789 10.0164 10.9585 9.09046C11.3382 8.16447 11.897 7.32261 12.603 6.61325C13.309 5.90388 14.1481 5.34098 15.0723 4.95689C15.9964 4.57279 16.9874 4.37506 17.9882 4.37506C18.9889 4.37506 19.9799 4.57279 20.904 4.95689C21.8282 5.34098 22.6673 5.90388 23.3733 6.61325C24.0793 7.32261 24.6381 8.16447 25.0178 9.09046C25.3974 10.0164 25.5904 11.0083 25.5856 12.0091Z" stroke="white" stroke-width="0.999982" stroke-linecap="round" stroke-linejoin="round"/>
<path id="path4173" fill-rule="evenodd" clip-rule="evenodd" d="M22.584 27.035H26.827L24.352 24.737L23.821 25.444L23.291 24.913L22.584 27.035Z" fill="url(#paint4_linear_21_491)"/>
<path id="path4368" opacity="0.22785" fill-rule="evenodd" clip-rule="evenodd" d="M8.5477 33.602C7.3 33.057 6.7417 31.743 6.7417 31.743C7.5829 27.674 10.4617 24.697 10.4617 24.697C10.4617 24.697 8.1823 31.109 8.5477 33.602Z" fill="url(#paint5_linear_21_491)"/>
<path id="path4370" opacity="0.22785" fill-rule="evenodd" clip-rule="evenodd" d="M27.4537 32.743C28.6847 32.162 29.2577 30.741 29.2577 30.741C28.2987 26.698 25.2817 23.898 25.2817 23.898C25.2817 23.898 27.7457 30.241 27.4537 32.743Z" fill="url(#paint6_linear_21_491)"/>
</g>
<g id="layer2">
<path id="path4306" fill-rule="evenodd" clip-rule="evenodd" d="M46.3673 39.3799C46.3771 40.0462 45.9865 40.7066 45.2179 41.3231C44.4494 41.9396 43.3181 42.5002 41.889 42.9725C40.46 43.4448 38.7613 43.8195 36.8905 44.0753C35.0198 44.331 33.0138 44.4627 30.988 44.4627C28.9621 44.4627 26.9561 44.331 25.0854 44.0753C23.2146 43.8195 21.5159 43.4448 20.0869 42.9725C18.6578 42.5002 17.5265 41.9396 16.758 41.3231C15.9895 40.7066 15.5988 40.0462 15.6086 39.3799C15.5988 38.7135 15.9895 38.0531 16.758 37.4366C17.5265 36.8201 18.6578 36.2596 20.0869 35.7873C21.5159 35.315 23.2146 34.9402 25.0854 34.6844C26.9561 34.4287 28.9621 34.2971 30.988 34.2971C33.0138 34.2971 35.0198 34.4287 36.8905 34.6844C38.7613 34.9402 40.46 35.315 41.889 35.7873C43.3181 36.2596 44.4494 36.8201 45.2179 37.4366C45.9865 38.0531 46.3771 38.7135 46.3673 39.3799Z" fill="url(#paint7_radial_21_491)"/>
<path id="path4308" fill-rule="evenodd" clip-rule="evenodd" d="M25.9859 41.636H36.5929C39.5979 41.636 42.5729 40.534 43.6639 37.393C44.6989 34.411 43.8409 28.731 37.1229 24.135H24.5719C17.8539 28.378 17.0149 34.18 18.5619 37.57C20.1369 41.024 22.8039 41.636 25.9859 41.636Z" fill="#FFAC33" stroke="#FFAC33" stroke-linecap="round" stroke-linejoin="round"/>
<path id="path4310" fill-rule="evenodd" clip-rule="evenodd" d="M26.6929 25.726C29.8749 28.555 31.2889 38.808 31.2889 38.808C31.2889 38.808 32.7039 28.555 35.1789 25.549L26.6929 25.726Z" fill="url(#paint8_linear_21_491)"/>
<path id="path4312" fill-rule="evenodd" clip-rule="evenodd" d="M28.9727 26.787C28.9727 26.787 26.8207 28.447 27.0067 30.447C24.9657 28.647 24.9067 25.196 24.9067 25.196L28.9727 26.787Z" fill="#FFAC33"/>
<path id="path4314" opacity="0.21519" d="M25.915 40.594L36.408 40.572C39.048 40.572 41.661 39.604 42.619 36.845C43.529 34.225 42.525 29.237 36.624 25.199L25.099 24.956C19.199 28.683 18.057 33.779 19.437 37C20.818 40.221 22.833 40.572 25.915 40.594Z" stroke="white" stroke-linecap="round" stroke-linejoin="round"/>
<path id="path4316" fill-rule="evenodd" clip-rule="evenodd" d="M33.4106 26.787C33.4106 26.787 35.5616 28.447 35.3766 30.447C37.4176 28.647 37.4766 25.196 37.4766 25.196L33.4106 26.787Z" fill="#FFAC33"/>
<path id="path4354" opacity="0.22785" fill-rule="evenodd" clip-rule="evenodd" d="M21.8519 40.775C20.6039 40.23 20.0459 38.917 20.0459 38.917C20.8869 34.848 23.7659 31.871 23.7659 31.871C23.7659 31.871 21.4859 38.282 21.8519 40.775Z" fill="url(#paint9_linear_21_491)"/>
<path id="path4364" opacity="0.22785" fill-rule="evenodd" clip-rule="evenodd" d="M40.7569 39.917C41.9889 39.336 42.5619 37.915 42.5619 37.915C41.6029 33.872 38.5859 31.072 38.5859 31.072C38.5859 31.072 41.0499 37.414 40.7569 39.917Z" fill="url(#paint10_linear_21_491)"/>
</g>
<path id="path2327_2" fill-rule="evenodd" clip-rule="evenodd" d="M40.3241 18.7037C40.3296 19.8447 40.1096 20.9756 39.6767 22.0313C39.2439 23.0871 38.6067 24.0469 37.8018 24.8556C36.9969 25.6644 36.0402 26.3062 34.9866 26.7441C33.9329 27.182 32.8031 27.4074 31.6621 27.4074C30.5211 27.4074 29.3913 27.182 28.3376 26.7441C27.284 26.3062 26.3273 25.6644 25.5224 24.8556C24.7175 24.0469 24.0803 23.0871 23.6475 22.0313C23.2146 20.9756 22.9946 19.8447 23.0001 18.7037C22.9946 17.5627 23.2146 16.4319 23.6475 15.3761C24.0803 14.3204 24.7175 13.3606 25.5224 12.5518C26.3273 11.743 27.284 11.1013 28.3376 10.6634C29.3913 10.2254 30.5211 10 31.6621 10C32.8031 10 33.9329 10.2254 34.9866 10.6634C36.0402 11.1013 36.9969 11.743 37.8018 12.5518C38.6067 13.3606 39.2439 14.3204 39.6767 15.3761C40.1096 16.4319 40.3296 17.5627 40.3241 18.7037Z" fill="url(#paint11_radial_21_491)" stroke="#6F4709" stroke-linecap="round" stroke-linejoin="round"/>
</g>
<defs>
<radialGradient id="paint0_radial_21_491" cx="0" cy="0" r="1" gradientUnits="userSpaceOnUse" gradientTransform="translate(17.863 30.0051) scale(15.3796 8.30851)">
<stop/>
<stop offset="1" stop-opacity="0"/>
</radialGradient>
<radialGradient id="paint1_radial_21_491" cx="0" cy="0" r="1" gradientUnits="userSpaceOnUse" gradientTransform="translate(16.215 21.7604) scale(13.565 9.25025)">
<stop stop-color="#727E0A"/>
<stop offset="1" stop-color="#5B6508"/>
</radialGradient>
<radialGradient id="paint2_radial_21_491" cx="0" cy="0" r="1" gradientUnits="userSpaceOnUse" gradientTransform="translate(17.8628 15.509) scale(8.6621)">
<stop/>
<stop offset="1" stop-opacity="0"/>
</radialGradient>
<radialGradient id="paint3_radial_21_491" cx="0" cy="0" r="1" gradientUnits="userSpaceOnUse" gradientTransform="translate(16.2198 10.0641) scale(7.21974)">
<stop stop-color="#E9B15E"/>
<stop offset="1" stop-color="#966416"/>
</radialGradient>
<linearGradient id="paint4_linear_21_491" x1="18.518" y1="22.553" x2="18.518" y2="28.803" gradientUnits="userSpaceOnUse">
<stop stop-color="white"/>
<stop offset="1" stop-color="#C9C9C9"/>
</linearGradient>
<linearGradient id="paint5_linear_21_491" x1="6.74201" y1="29.1498" x2="8.60171" y2="29.9" gradientUnits="userSpaceOnUse">
<stop/>
<stop offset="1" stop-opacity="0"/>
</linearGradient>
<linearGradient id="paint6_linear_21_491" x1="27.2699" y1="29.2249" x2="28.3838" y2="28.3207" gradientUnits="userSpaceOnUse">
<stop/>
<stop offset="1" stop-opacity="0"/>
</linearGradient>
<radialGradient id="paint7_radial_21_491" cx="0" cy="0" r="1" gradientUnits="userSpaceOnUse" gradientTransform="translate(30.988 39.3799) scale(15.3796 5.05849)">
<stop/>
<stop offset="1" stop-opacity="0"/>
</radialGradient>
<linearGradient id="paint8_linear_21_491" x1="30.9359" y1="29.553" x2="30.9359" y2="35.803" gradientUnits="userSpaceOnUse">
<stop stop-color="white"/>
<stop offset="1" stop-color="#C9C9C9"/>
</linearGradient>
<linearGradient id="paint9_linear_21_491" x1="20.046" y1="36.3233" x2="21.9057" y2="37.0734" gradientUnits="userSpaceOnUse">
<stop/>
<stop offset="1" stop-opacity="0"/>
</linearGradient>
<linearGradient id="paint10_linear_21_491" x1="40.5741" y1="36.3987" x2="41.688" y2="35.4945" gradientUnits="userSpaceOnUse">
<stop/>
<stop offset="1" stop-opacity="0"/>
</linearGradient>
<radialGradient id="paint11_radial_21_491" cx="0" cy="0" r="1" gradientUnits="userSpaceOnUse" gradientTransform="translate(29.8942 16.7588) scale(7.21974)">
<stop stop-color="#E9B15E"/>
<stop offset="1" stop-color="#966416"/>
</radialGradient>
</defs>
</svg>
