<svg width="45" height="40" viewBox="0 0 45 40" fill="none" xmlns="http://www.w3.org/2000/svg">
<g id="publicdomainq-call 1" clip-path="url(#clip0_21_430)">
<g id="Layer_1">
<path id="Vector" d="M36.1344 39.7535C36.348 39.2285 36.6976 37.6262 37.0337 35.9291L37.1764 35.1975C37.1764 35.1975 38.5295 31.953 38.1992 30.1384C38.0251 29.2441 39.4496 28.1321 38.4121 27.6566C37.9016 27.4227 37.3924 27.2584 36.9877 27.1824C35.7585 26.9522 30.9058 25.5112 30.9058 25.5112L27.2847 25.7427C27.2847 25.7427 23.324 26.7666 22.2935 26.9105C21.2633 27.0546 19.8375 27.6015 19.3221 28.4081C18.8067 29.2141 20.7566 33.8388 20.7566 33.8388L20.841 34.2924C21.2536 36.482 21.7736 39.0594 22.056 39.7535H36.1344Z" fill="#3E721D"/>
<path id="Vector_2" d="M30.9058 25.9603L30.8303 24.9354L30.9058 24.2614L27.3601 24.4149V24.9354L27.2847 25.9603L27.6163 28.9127H29.9933L30.9058 25.9603Z" fill="#F8D4B3"/>
<path id="Vector_3" d="M27.3598 24.6028H30.83L30.8591 25.83C30.8591 25.83 30.1602 27.2674 27.689 26.79L27.249 26.0544L27.3598 24.6028Z" fill="#CF957E"/>
<path id="Vector_4" d="M29.1126 35.7537C26.1803 35.7537 22.3328 35.3059 20.8066 34.3034C21.0849 35.6566 21.879 39.3193 22.0556 39.7535H36.134C36.3102 39.3205 37.0824 35.6943 37.3601 34.3464C35.5698 35.3276 32.0276 35.7537 29.1126 35.7537Z" fill="#3E721D"/>
<g id="Group">
<path id="Vector_5" d="M29.1269 33.1779L31.2215 28.5912L31.4091 26.5857L29.1169 28.5497L26.6367 26.6073L27.0313 28.5912L29.1269 33.1779Z" fill="#3E721D"/>
<path id="Vector_6" d="M32.5402 24.7027C38.3815 25.1955 39.4491 22.9102 39.4491 22.9102L40.1988 25.0906C42.2179 23.8745 42.6932 18.6121 42.6932 18.6121L43.4869 13.9027C44.0546 3.954 37.189 2.36054 37.189 2.36054C34.1027 0.809096 23.3453 -1.81531 17.3831 4.49513C13.6153 8.48306 14.3055 14.0569 14.3055 14.0569L16.2114 18.8637C16.2114 18.8637 17.6725 22.7847 16.3011 24.6295C16.3011 24.6295 18.8529 24.2521 19.1413 23.6649C19.1413 23.6649 19.9478 24.8808 25.1404 24.6295" fill="#714638"/>
<path id="Vector_7" d="M38.5861 3.20177C35.9134 0.473973 23.3453 -1.81533 17.3831 4.49511C13.6153 8.48303 14.3055 14.0569 14.3055 14.0569L15.7562 13.5975C15.7562 13.5975 14.7036 6.86794 21.3643 3.43171C27.6338 0.197244 34.1785 1.79724 36.6795 2.67121C36.7373 2.67121 38.5861 3.20177 38.5861 3.20177Z" fill="#D8A793"/>
<path id="Vector_8" d="M17.3181 14.4893C17.3181 14.4893 16.6192 13.5036 15.3038 13.8023C12.5606 14.4254 13.4401 18.7472 17.9734 19.1197" fill="#F7CCAA"/>
<path id="Vector_9" d="M40.7067 14.5059C40.7067 14.5059 41.4055 13.52 42.7209 13.8189C45.4642 14.4418 44.7352 18.7635 40.1313 19.1366" fill="#F7CCAA"/>
</g>
<path id="Vector_10" d="M37.8531 8.81764C37.8531 8.81764 33.2666 8.94343 28.3245 8.18393C25.601 7.76532 22.1318 6.4906 22.1318 6.4906C22.1318 6.4906 21.7306 7.59148 21.209 8.69186C20.5928 9.98972 19.7953 11.4383 17.4466 13.2403C17.4425 13.2677 17.4404 13.2833 17.4404 13.2833C17.3044 14.9228 17.3404 17.7721 18.3916 20.0589C20.2522 24.1062 26.1887 25.0237 29.0071 25.0237C31.8252 25.0237 37.7621 24.1062 39.6226 20.0589C40.6171 17.8951 41.0519 15.1968 40.5943 13.5588C40.586 13.5283 40.6656 11.0189 37.8531 8.81764Z" fill="#F7CCAA"/>
<path id="Vector_11" d="M25.9326 15.1852C25.9326 16.4345 24.8643 17.4473 23.5465 17.4473C22.2291 17.4473 21.1602 16.4345 21.1602 15.1852C21.1602 13.9361 22.2291 12.9233 23.5465 12.9233C24.8643 12.9233 25.9326 13.9361 25.9326 15.1852Z" fill="#FFFFFE"/>
<path id="Vector_12" d="M36.9815 15.1852C36.9815 16.4345 35.9133 17.4473 34.5955 17.4473C33.278 17.4473 32.2095 16.4345 32.2095 15.1852C32.2095 13.9361 33.278 12.9233 34.5955 12.9233C35.9133 12.9233 36.9815 13.9361 36.9815 15.1852Z" fill="#FFFFFE"/>
<path id="Vector_13" d="M29.0708 23.6121C25.8225 23.6121 25.5905 20.5303 25.5518 19.8385C25.5518 19.8385 29.0067 20.719 32.4617 19.8385C32.4229 20.5303 32.191 23.6121 28.9423 23.6121" fill="#DF7370"/>
<path id="Vector_14" d="M22.2205 17.7021C22.2205 18.0931 21.3132 18.4103 20.1941 18.4103C19.0746 18.4103 18.167 18.0931 18.167 17.7021C18.167 17.3112 19.0746 16.994 20.1941 16.994C21.3132 16.994 22.2205 17.3112 22.2205 17.7021Z" fill="#EC9896"/>
<path id="Vector_15" d="M39.8658 17.7021C39.8658 18.0931 38.9582 18.4103 37.8391 18.4103C36.7193 18.4103 35.812 18.0931 35.812 17.7021C35.812 17.3112 36.7193 16.994 37.8391 16.994C38.9582 16.994 39.8658 17.3112 39.8658 17.7021Z" fill="#EC9896"/>
<path id="Vector_16" d="M17.6418 17.7562L17.4396 16.1663C17.4396 16.1663 16.8709 15.1801 15.9976 15.0277C14.8726 14.8312 14.8494 16.1489 15.6223 16.8926C16.8048 18.0314 17.6418 17.7562 17.6418 17.7562Z" fill="#CF957E"/>
<path id="Vector_17" d="M40.5454 17.7562L40.7476 16.1663C40.7476 16.1663 41.3159 15.1801 42.1896 15.0277C43.3146 14.8312 43.3375 16.1489 42.5649 16.8926C41.3824 18.0314 40.5454 17.7562 40.5454 17.7562Z" fill="#CF957E"/>
<path id="Vector_18" d="M27.0952 28.6456L28.6581 28.0219L29.1174 28.5497L29.6266 28.0219L31.1179 28.8151L30.6592 30.0272C30.6592 30.0272 30.0129 29.0878 28.9914 29.1032C27.9907 29.118 27.5535 29.9968 27.5535 29.9968L27.0952 28.6456Z" fill="#FFAC33"/>
<path id="Vector_19" d="M28.806 20.8868C30.0282 20.8868 31.12 21.3507 31.8507 22.08C32.3686 21.1988 32.442 20.1972 32.4617 19.8385C29.0067 20.719 25.5518 19.8385 25.5518 19.8385C25.5698 20.1643 25.6317 21.0214 26.0312 21.8365C26.7481 21.2496 27.7263 20.8868 28.806 20.8868Z" fill="#C35953"/>
<path id="Vector_20" d="M23.7569 13.4775C24.3097 13.4775 24.8362 13.5502 25.3219 13.6782C24.8854 13.2159 24.2526 12.9233 23.5465 12.9233C22.7489 12.9233 22.0449 13.2956 21.6118 13.8652C22.2442 13.6199 22.9753 13.4775 23.7569 13.4775Z" fill="#D2E0EB"/>
<path id="Vector_21" d="M34.4008 13.4775C33.8479 13.4775 33.3214 13.5502 32.8354 13.6782C33.2723 13.2159 33.9047 12.9233 34.6109 12.9233C35.4088 12.9233 36.1125 13.2956 36.5459 13.8652C35.9134 13.6199 35.1824 13.4775 34.4008 13.4775Z" fill="#D2E0EB"/>
<path id="Vector_22" d="M19.3219 28.4081C18.8064 29.2141 15.6803 33.3889 15.6803 33.3889L15.4626 32.7686C15.1601 31.7238 14.9226 30.7854 14.8897 30.5678C14.816 30.0777 13.8744 30.2798 13.8744 30.2798L11.1478 31.3029C11.1478 31.3029 9.78982 32.2438 10.1696 32.7623C10.5482 33.2803 11.3974 36.3842 11.6352 37.392C11.873 38.4 13.3843 39.2035 14.5674 38.8896C16.6271 38.3424 20.7563 33.8387 20.7563 33.8387L20.7688 33.9057C20.7684 33.9042 20.7684 33.9024 20.7681 33.9009C20.7681 33.9009 21.2953 30.3693 20.0837 27.8116L20.0104 27.7477C19.7213 27.9411 19.479 28.1623 19.3219 28.4081Z" fill="#FFAC33"/>
<g id="Group_2">
<path id="Vector_23" d="M38.0257 27.4551C36.8142 30.0129 37.2455 33.9009 37.2455 33.9009L37.1759 35.1975L38.4833 39.8031L42.2838 39.8239C42.2838 39.8239 40.9528 31.6086 40.6648 29.79C40.3837 28.0156 38.0257 27.4551 38.0257 27.4551Z" fill="#FFAC33"/>
<path id="Vector_24" d="M11.3046 32.7145C11.1471 31.787 10.3118 29.9548 10.3118 29.9548C10.3118 29.9548 8.03897 30.0826 4.45074 28.3515C4.45074 28.3515 2.33782 27.8821 0.669705 27.4589C-0.429334 27.1797 0.937628 26.8403 0.937628 26.8403C0.937628 26.8403 0.311436 26.6154 0.338436 26.348C0.375474 25.9764 1.08405 25.9877 1.08405 25.9877C1.08405 25.9877 0.931743 25.6876 1.32567 25.4609C1.71197 25.2385 2.43682 25.2856 2.43682 25.2856C2.43682 25.2856 2.29974 24.916 2.70197 24.7558C3.6449 24.3809 6.24347 24.8579 8.57447 25.793L9.06567 25.7789C8.9189 25.6448 8.79636 25.4894 8.73613 25.3173C8.51597 24.6871 8.62605 24.4124 8.89397 24.3208C9.16155 24.2292 9.76005 24.5495 10.1381 24.8473C10.5164 25.1455 11.4462 25.8091 11.8719 26.0612C12.1959 26.2534 13.2541 27.1583 13.2763 28.2373L13.2361 28.8514C13.2361 28.8514 13.3649 30.4131 14.0271 31.1744L13.9516 31.432C13.4618 31.8901 12.6868 32.4305 11.6016 32.6597L11.3046 32.7145Z" fill="#F7CCAA"/>
</g>
<path id="Vector_25" d="M10.8794 31.1688C10.8794 31.1688 11.9185 32.2219 13.5887 31.6496C13.5887 31.6496 13.9771 31.7434 12.8847 32.2295C11.7919 32.7155 11.3045 32.7145 11.3045 32.7145L10.8794 31.1688Z" fill="#CF957E"/>
<path id="Vector_26" d="M19.1431 4.13462C22.8244 5.03274 25.2693 5.04255 26.6397 4.90544C27.5598 4.81362 27.0748 4.57437 26.6556 4.52129C22.3419 3.97135 21.0549 2.76758 21.0549 2.76758L19.1431 4.13462Z" fill="#D8A793"/>
<path id="Vector_27" d="M28.5067 28.0212L25.2861 29.3648L25.8995 26.323C26.1017 25.757 26.4766 25.5686 26.9671 25.4846L29.0069 28.7847" fill="#FFAC33"/>
<path id="Vector_28" d="M29.5309 28.0632L32.7276 29.3648L32.1139 26.323C31.9118 25.757 31.5369 25.5686 31.0464 25.4846L29.0068 28.7847" fill="#FFAC33"/>
<path id="Vector_29" d="M20.106 27.7283C20.106 27.7283 20.4476 27.3811 21.2213 27.1494C21.9949 26.9177 26.1141 26.0745 26.1141 26.0745L25.7503 26.802C25.7503 26.802 20.5611 28.0259 20.3794 28.3072L20.106 27.7283Z" fill="#8A8B8A"/>
<path id="Vector_30" d="M31.9858 25.7932L32.2136 26.5376L37.7438 27.993L37.994 27.3477L31.9858 25.7932Z" fill="#8A8B8A"/>
<path id="Vector_31" d="M20.0838 27.8116C20.0838 27.8116 19.6147 27.9213 19.3337 28.3459C19.0522 28.7703 15.6772 33.3301 15.6772 33.3301L15.8071 33.7074C15.8071 33.7074 19.8529 28.5032 20.3071 28.3459L20.0838 27.8116Z" fill="#FFFFFE"/>
<path id="Vector_32" d="M37.7437 27.993C37.7437 27.993 40.0162 28.7968 40.7085 30.4109C40.7085 30.4109 40.651 28.7759 39.9009 28.3565C39.1508 27.9372 38.0258 27.4551 38.0258 27.4551L37.7437 27.993Z" fill="#FFFFFE"/>
<path id="Vector_33" d="M25.5605 15.5117C25.5605 16.3628 24.9014 17.0526 24.0893 17.0526C23.2765 17.0526 22.6182 16.3628 22.6182 15.5117C22.6182 14.6606 23.2765 13.9708 24.0893 13.9708C24.9014 13.9708 25.5605 14.6606 25.5605 15.5117Z" fill="#1A1919"/>
<path id="Vector_34" d="M32.5405 15.5117C32.5405 16.3628 33.1989 17.0526 34.0117 17.0526C34.8245 17.0526 35.4828 16.3628 35.4828 15.5117C35.4828 14.6606 34.8245 13.9708 34.0117 13.9708C33.1989 13.9708 32.5405 14.6606 32.5405 15.5117Z" fill="#1A1919"/>
<path id="Vector_35" d="M25.5347 14.996C25.5347 15.1703 25.3402 15.3114 25.1003 15.3114C24.8601 15.3114 24.6655 15.1703 24.6655 14.996C24.6655 14.8214 24.8601 14.68 25.1003 14.68C25.3402 14.68 25.5347 14.8214 25.5347 14.996Z" fill="#FFFFFE"/>
<path id="Vector_36" d="M35.3691 14.996C35.3691 15.1703 35.1742 15.3114 34.9343 15.3114C34.6944 15.3114 34.4995 15.1703 34.4995 14.996C34.4995 14.8214 34.6944 14.68 34.9343 14.68C35.1742 14.68 35.3691 14.8214 35.3691 14.996Z" fill="#FFFFFE"/>
<path id="Vector_37" d="M14.2279 14.0166C14.2905 14.3306 12.4864 6.50565 17.8698 4.06641C17.8698 4.06641 14.0894 6.82465 15.2418 13.6327" fill="#CBCCCB"/>
<g id="Group_3">
<path id="Vector_38" d="M43.7859 14.0166C43.7859 14.0166 45.3073 6.40578 40.144 4.06641C40.144 4.06641 43.9244 6.82465 42.7717 13.6327" fill="#CBCCCB"/>
<path id="Vector_39" d="M41.2071 16.4342C40.756 18.0664 40.7505 19.4417 41.3936 19.5356C42.4311 19.687 43.8953 18.5248 44.3463 16.8928C44.7977 15.2606 44.0452 13.8372 43.0278 13.6259C42.3951 13.4943 41.6584 14.8022 41.2071 16.4342Z" fill="#CBCCCB"/>
</g>
<path id="Vector_40" d="M42.1988 16.5983C42.5536 15.3155 43.0846 14.2365 43.6028 13.8956C43.4266 13.7626 43.2331 13.6687 43.0278 13.626C42.3951 13.4944 41.6584 14.8023 41.2071 16.4343C40.756 18.0665 40.7505 19.4418 41.3936 19.5356C41.6031 19.5661 41.8301 19.5409 42.0624 19.4715C41.7664 19.0041 41.8443 17.8821 42.1988 16.5983Z" fill="#4D4E4C"/>
<path id="Vector_41" d="M21.0871 25.8765C21.0497 25.8765 21.0116 25.872 20.9743 25.8627C14.7542 24.2999 15.217 18.6179 15.2226 18.5605C15.2357 18.4222 15.4026 18.3165 15.5916 18.3271C15.782 18.3364 15.926 18.4561 15.9131 18.5948C15.9083 18.6483 15.4843 23.951 21.2003 25.387C21.381 25.4325 21.4769 25.5756 21.4146 25.7072C21.3651 25.8111 21.2308 25.8765 21.0871 25.8765Z" fill="#CBCCCB"/>
<path id="Vector_42" d="M23.401 25.7777C23.401 26.1671 22.833 26.4826 22.1331 26.4826C21.4328 26.4826 20.8647 26.1671 20.8647 25.7777C20.8647 25.3885 21.4328 25.073 22.1331 25.073C22.833 25.073 23.401 25.3885 23.401 25.7777Z" fill="#4D4E4C"/>
<path id="Vector_43" d="M16.7287 16.4343C17.1798 18.0665 17.1857 19.4418 16.5422 19.5356C15.5047 19.6871 14.0409 18.5248 13.5895 16.8929C13.1381 15.2607 13.8906 13.8373 14.908 13.626C15.5407 13.4944 16.2774 14.8023 16.7287 16.4343Z" fill="#CBCCCB"/>
<path id="Vector_44" d="M15.737 16.5983C15.3822 15.3155 14.8512 14.2365 14.333 13.8956C14.5092 13.7626 14.703 13.6687 14.908 13.626C15.5407 13.4944 16.2774 14.8023 16.7287 16.4343C17.1798 18.0665 17.1857 19.4418 16.5422 19.5356C16.3331 19.5661 16.1057 19.5409 15.8734 19.4715C16.1694 19.0041 16.0915 17.8821 15.737 16.5983Z" fill="#4D4E4C"/>
<path id="Vector_45" d="M14.7945 15.5819C14.7945 16.0916 14.5311 16.5052 14.2068 16.5052C13.8817 16.5052 13.6187 16.0916 13.6187 15.5819C13.6187 15.0725 13.8817 14.6591 14.2068 14.6591C14.5311 14.6591 14.7945 15.0725 14.7945 15.5819Z" fill="#FFFFFE"/>
</g>
</g>
<defs>
<clipPath id="clip0_21_430">
<rect width="45" height="40" fill="white"/>
</clipPath>
</defs>
</svg>
