<svg width="58" height="45" viewBox="0 0 58 45" fill="none" xmlns="http://www.w3.org/2000/svg">
<g id="layer1">
<g id="path4254" opacity="0.39512" filter="url(#filter0_f_123_91)">
<path d="M17.4833 38.671L12.93 38.3493L12.3241 38.3522L11.0409 38.2108L10.9773 38.2177C10.9773 38.2177 8.84542 38.0643 9.10129 37.9315C9.28319 37.8372 11.6662 37.7726 11.6662 37.7726L11.6711 37.7738L12.9039 37.67L13.64 37.5239L13.7328 37.5113C11.728 37.5558 9.75916 37.592 8.35894 37.4994L9.20108 37.4527C7.5253 37.3757 6.42285 37.1932 6.42285 36.949C6.42285 36.5589 9.23537 36.1589 12.7056 36.0557C16.1758 35.9524 18.9883 36.1851 18.9883 36.5752C18.9883 36.6745 18.8059 36.7744 18.4769 36.8699L18.5876 36.8549L19.9556 36.7271L20.0843 36.587L20.0615 36.5873L19.2635 36.1987L21.2194 36.1117L21.8512 36.1488L22.1102 36.098L27.3261 35.93L28.3782 35.9794L28.6941 35.8954L35.3322 35.7156L32.9316 35.9594C34.0647 35.9872 36.0547 35.9571 37.2538 35.9744C38.1345 35.6233 40.8091 35.3073 43.9732 35.2132C47.8544 35.0977 51.0001 35.3598 51.0001 35.7984C51.0001 36.0758 49.7409 36.3574 47.8342 36.5562L49.8243 36.6613C50.0392 36.8173 49.1668 36.8721 47.9824 36.9524L44.5251 36.7827C44.3428 36.7897 44.1588 36.7963 43.973 36.8018C42.7427 36.8384 41.5864 36.837 40.5807 36.8041L39.0304 36.9936C39.3634 37.0196 39.6862 37.0461 40.0091 37.0727L39.3218 37.0915L41.644 37.1506L45.5932 37.2878L48.645 37.4954L45.4873 37.583L41.6977 37.4844L40.9713 37.4611L45.2771 37.6142L39.2779 37.656C39.2779 37.656 39.2236 37.6078 38.9604 37.5411C38.7277 37.4821 38.5359 37.4704 38.8219 37.4416L38.1705 37.4031L35.4851 37.4332L33.2752 37.4555L32.0115 37.4931L31.6956 37.4154L31.9594 37.3891L31.5636 37.4215L31.6956 37.4218L32.0115 37.4931L32.3274 37.5644C32.3274 37.5644 30.9217 37.9158 29.8162 37.9984C28.7107 38.081 27.5994 38.043 26.8002 38.052C25.0131 38.0722 22.0089 38.0765 21.5352 38.0533C21.0615 38.0302 21.1666 38.0021 21.0613 37.9804C20.9638 37.9602 21.3492 37.9368 21.4082 37.9333C21.0799 37.9471 20.7526 37.9607 20.4295 37.9744C19.4173 38.0172 18.3934 38.0326 17.376 38.0591C16.2523 38.0882 14.0082 38.1406 14.0082 38.1406L14.7867 38.005L13.7444 38.1421L14.2183 38.2833L16.5341 38.3575L18.1137 38.3478C18.1137 38.3478 18.8929 38.4339 19.1853 38.4791L19.5354 38.4919L17.4819 38.671L17.4833 38.671ZM11.347 38.1776L11.4822 38.1721L11.4464 38.1668L11.347 38.1776ZM38.6197 37.335L36.7092 37.1623L35.0661 37.2067L36.6441 37.1688L38.6197 37.335ZM30.2066 37.4188L28.381 37.4059C28.3598 37.409 28.3387 37.4122 28.3175 37.4152L30.2066 37.4188L30.2066 37.4188ZM38.3477 36.943C38.6287 36.9126 38.8865 36.885 39.1913 36.8522L38.1245 36.9278C38.2 36.9328 38.2739 36.9379 38.3476 36.943L38.3477 36.943ZM37.5595 36.8925L39.5723 36.7574C39.2318 36.7366 38.9167 36.7116 38.6327 36.6825C36.4146 36.6624 34.2735 36.6425 33.1593 36.632L33.1186 36.7393L32.2749 36.7333L27.0637 37.0625L24.3392 36.6804L24.2219 36.6933L21.473 36.3497L22.4322 36.5663L21.3394 36.5759L23.5363 36.6144C23.5363 36.6144 25.4319 36.8375 25.5898 36.8639C25.742 36.8893 27.1144 37.0719 27.2183 37.0857L27.4317 37.0577C27.4317 37.0577 31.8022 36.7722 32.0127 36.7536C32.0496 36.7503 31.9798 36.768 31.8303 36.7999L32.0648 36.7645C34.5569 36.7616 36.2235 36.8155 37.5596 36.8924L37.5595 36.8925ZM45.7151 36.4441C46.1411 36.412 46.5365 36.3738 46.8892 36.3313C46.6528 36.2993 46.4245 36.2509 46.2069 36.2C46.0095 36.1954 45.8117 36.1908 45.619 36.1865C45.1675 36.2413 44.597 36.284 43.9742 36.305C43.922 36.3177 43.8687 36.3307 43.8162 36.3436L45.7151 36.4441ZM47.5537 36.2379C48.2276 36.1266 48.6334 35.9971 48.6334 35.8688C48.6334 35.868 48.6334 35.8672 48.6334 35.8663C48.2192 35.8762 47.6932 35.8778 47.1596 35.8773C46.983 35.8929 46.8072 35.9085 46.6352 35.9239C46.6192 35.9963 46.383 36.0691 46.0018 36.1323C46.0846 36.1525 46.172 36.1733 46.2591 36.194C46.7507 36.2058 47.2229 36.2195 47.5538 36.2379L47.5537 36.2379ZM43.5247 36.3282C43.5158 36.3244 43.5077 36.3205 43.4987 36.3167C43.4447 36.3175 43.3904 36.318 43.3375 36.3184L43.5247 36.3282ZM12.6787 37.2238C12.6877 37.2235 12.6974 37.2233 12.7064 37.223C13.678 37.1941 14.5702 37.1297 15.2729 37.0453C15.0682 37.0177 14.8705 36.9762 14.6818 36.9324C14.5122 36.9285 14.3425 36.9247 14.1769 36.9211C13.7732 36.9699 13.2633 37.0079 12.7064 37.0267C12.6255 37.0463 12.545 37.0662 12.4637 37.0862C12.573 37.1351 12.6643 37.1834 12.6787 37.2238L12.6787 37.2238ZM11.871 37.2384C11.9703 37.1955 12.1717 37.141 12.3937 37.0856C12.3564 37.0693 12.3197 37.053 12.2813 37.0371C11.6458 37.0463 11.0863 37.0262 10.7 36.9847C10.6067 36.9894 10.5134 36.9942 10.4199 36.999C10.104 37.0553 9.78275 37.1091 9.4917 37.1443C10.0779 37.2099 10.9137 37.2446 11.871 37.2384ZM39.8018 36.3659C39.8843 36.3589 39.9777 36.3518 40.0754 36.3449L41.0672 36.1983L41.4433 36.2181C41.2309 36.1805 41.1095 36.1339 41.1095 36.0804C41.1095 36.0473 41.1559 36.0139 41.2414 35.9815C41.1925 35.978 41.1427 35.9747 41.0932 35.9713C40.4831 35.9905 39.8886 36.0063 39.4696 36.0067C39.3692 36.0527 39.3149 36.0995 39.3149 36.1461C39.3149 36.1866 39.3567 36.2248 39.4338 36.2604C39.8022 36.2786 39.9865 36.2955 40.1112 36.2965L39.7888 36.3632C39.7932 36.3641 39.7974 36.365 39.8018 36.3659L39.8018 36.3659ZM40.1112 36.2965L40.5395 36.2079C40.3283 36.2765 40.2596 36.2977 40.1112 36.2965ZM37.1082 36.3817C37.0027 36.3301 36.947 36.2748 36.947 36.2165C36.947 36.184 36.9654 36.1514 36.9991 36.1189C36.3816 36.0959 35.4041 36.099 34.4342 36.0975L32.2226 36.0576L32.3562 35.9825L29.433 35.9045L32.1168 36.0296C32.1168 36.0296 31.6148 36.0447 31.0192 36.0671C31.2618 36.0746 33.6066 36.1476 33.9065 36.1505C34.0578 36.152 33.5814 36.1921 33.0434 36.2335L35.4862 36.1904V36.2463L35.1133 36.2544L32.8105 36.423L33.1753 36.4583L33.6964 36.368L36.1181 36.2276C36.1181 36.2276 36.5998 36.3089 37.1083 36.3818L37.1082 36.3817ZM15.8577 36.9633C16.4511 36.8657 16.8088 36.7523 16.8088 36.64C16.8088 36.6392 16.8088 36.6384 16.8088 36.6377C16.4498 36.6462 15.9959 36.6478 15.5336 36.6475C15.383 36.6608 15.2325 36.6741 15.0858 36.6872C15.0715 36.7516 14.86 36.8165 14.5191 36.8726C14.5904 36.89 14.6657 36.9078 14.7405 36.9254C15.1654 36.9356 15.5714 36.9475 15.8577 36.9633L15.8577 36.9633ZM32.4197 36.3849L34.9439 36.2579L31.8009 36.3248L32.4197 36.3849L32.4197 36.3849ZM9.03252 37.0765C9.37064 37.0479 9.86893 37.0198 10.3858 36.993C10.4373 36.9837 10.4895 36.9744 10.5405 36.9651C10.2911 36.9294 10.1448 36.8824 10.1448 36.8273C10.1448 36.7979 10.1873 36.7683 10.2637 36.7394C10.2256 36.7367 10.1865 36.7339 10.1481 36.7313C9.61839 36.7479 9.10352 36.7616 8.73941 36.7621C8.65103 36.8023 8.60424 36.8433 8.60424 36.8841C8.60424 36.9578 8.75897 37.0228 9.03254 37.0765L9.03252 37.0765ZM47.153 35.8703C47.6439 35.8272 48.1306 35.7867 48.5307 35.7626C48.3019 35.6471 47.6974 35.5584 46.8599 35.5085C46.5857 35.5511 46.1861 35.6 45.7655 35.6488C45.7312 35.6689 45.6969 35.689 45.6645 35.7089C46.1559 35.7413 46.4986 35.7971 46.6026 35.8689C46.7836 35.8694 46.9679 35.8699 47.153 35.8703ZM41.111 35.9639C41.1784 35.9617 41.2455 35.9595 41.3129 35.9573C41.6159 35.8649 42.2321 35.7814 42.9985 35.7299C43.0036 35.7173 43.009 35.7048 43.0131 35.6922C42.6659 35.6536 42.3387 35.6144 42.1451 35.5777C41.137 35.6563 40.3138 35.7685 39.8196 35.8931C40.2029 35.9039 40.6577 35.9324 41.111 35.9639ZM15.5299 36.6392C15.9536 36.6023 16.3734 36.5676 16.7187 36.5468C16.5172 36.4456 15.984 36.3681 15.2465 36.3245C15.0093 36.3612 14.6652 36.4033 14.302 36.4453C14.2729 36.4623 14.2449 36.4792 14.2173 36.496C14.6567 36.5248 14.963 36.5745 15.056 36.6383C15.2116 36.6387 15.371 36.639 15.5299 36.6392ZM45.3222 35.691C45.45 35.6765 45.5783 35.662 45.7066 35.6472C45.8154 35.5849 45.9374 35.5237 46.0925 35.4758C45.4567 35.458 44.7371 35.4585 43.9738 35.4812C43.6484 35.4909 43.331 35.5041 43.0244 35.5204C43.0878 35.565 43.0867 35.625 43.0684 35.6869C43.1443 35.6953 43.2198 35.7036 43.2964 35.7118C43.4826 35.7018 43.6732 35.6939 43.8712 35.688C44.4028 35.6722 44.9008 35.6743 45.3222 35.691ZM10.1644 36.7229C10.2185 36.7212 10.2731 36.7195 10.3273 36.7177C10.5981 36.6354 11.1501 36.5611 11.8353 36.5152C11.8395 36.5049 11.8417 36.4946 11.8451 36.4844C11.5451 36.4511 11.2636 36.4173 11.0959 36.3857C10.2082 36.4547 9.484 36.5531 9.04891 36.6623C9.38039 36.6715 9.77236 36.696 10.1644 36.7229ZM29.5503 36.1396C29.9253 36.1195 30.2589 36.1015 30.5584 36.0852C30.3524 36.0938 30.1477 36.1029 29.9591 36.1125C29.8433 36.1183 29.7042 36.1278 29.5503 36.1396ZM23.4318 36.2632L21.1681 36.281L21.2039 36.2893L23.4318 36.2632ZM13.9113 36.4804C14.0193 36.4682 14.127 36.4558 14.2354 36.4434C14.33 36.3897 14.4366 36.3373 14.5709 36.296C14.011 36.2804 13.3783 36.2809 12.7062 36.3009C12.4197 36.3094 12.1407 36.3211 11.8708 36.3354C11.9257 36.3738 11.9252 36.4253 11.9099 36.4786C11.9729 36.4855 12.0368 36.4924 12.1004 36.4992C12.2669 36.4903 12.4379 36.4831 12.615 36.4778C13.0904 36.4636 13.5345 36.4656 13.9113 36.4804Z" fill="#0E232E"/>
<path d="M32.0115 37.4931L33.2752 37.4555L35.4851 37.4332L38.1705 37.4031L38.8219 37.4416C38.5359 37.4704 38.7277 37.4821 38.9604 37.5411C39.2236 37.6078 39.2779 37.656 39.2779 37.656L45.2771 37.6142L40.9713 37.4611L41.6977 37.4844L45.4873 37.583L48.645 37.4954L45.5932 37.2878L41.644 37.1506L39.3218 37.0915L40.0091 37.0727C39.6862 37.0461 39.3634 37.0196 39.0304 36.9936L40.5807 36.8041C41.5864 36.837 42.7427 36.8384 43.973 36.8018C44.1588 36.7963 44.3428 36.7897 44.5251 36.7827L47.9824 36.9524C49.1668 36.8721 50.0392 36.8173 49.8243 36.6613L47.8342 36.5562C49.7409 36.3574 51.0001 36.0758 51.0001 35.7984C51.0001 35.3598 47.8544 35.0977 43.9732 35.2132C40.809 35.3073 38.1345 35.6233 37.2538 35.9744C36.0547 35.9571 34.0647 35.9872 32.9316 35.9594L35.3322 35.7156L28.6941 35.8954L28.3782 35.9794L27.3261 35.93L22.1102 36.098L21.8512 36.1488L21.2194 36.1117L19.2635 36.1987L20.0615 36.5873L20.0843 36.587L19.9556 36.7271L18.5876 36.8549L18.4769 36.8699C18.8059 36.7744 18.9883 36.6745 18.9883 36.5752C18.9883 36.1851 16.1758 35.9524 12.7056 36.0557C9.23537 36.1589 6.42285 36.5589 6.42285 36.949C6.42285 37.1932 7.5253 37.3757 9.20108 37.4527L8.35894 37.4994C9.75916 37.592 11.728 37.5558 13.7328 37.5113L13.64 37.5239L12.9039 37.67L11.6711 37.7738L11.6662 37.7726C11.6662 37.7726 9.28319 37.8372 9.10129 37.9315C8.84542 38.0643 10.9773 38.2177 10.9773 38.2177L11.0409 38.2108L12.3241 38.3522L12.9299 38.3493L17.4833 38.671L17.4819 38.671L19.5354 38.4919L19.1853 38.4791C18.8929 38.4339 18.1137 38.3478 18.1137 38.3478L16.5341 38.3575L14.2183 38.2833L13.7444 38.1421L14.7867 38.005L14.0082 38.1406C14.0082 38.1406 16.2523 38.0882 17.376 38.0591C18.3934 38.0326 19.4173 38.0172 20.4295 37.9744C20.7526 37.9607 21.0799 37.9471 21.4082 37.9333C21.3492 37.9368 20.9638 37.9602 21.0613 37.9804C21.1666 38.0021 21.0615 38.0302 21.5352 38.0533C22.009 38.0765 25.0131 38.0722 26.8002 38.052C27.5994 38.043 28.7107 38.081 29.8162 37.9984C30.9217 37.9158 32.3274 37.5644 32.3274 37.5644L32.0115 37.4931ZM32.0115 37.4931L31.6956 37.4154L31.9594 37.3891L31.5636 37.4215L31.6956 37.4218L32.0115 37.4931ZM40.1112 36.2965C39.9865 36.2955 39.8022 36.2786 39.4338 36.2604C39.3567 36.2248 39.3149 36.1866 39.3149 36.1461C39.3149 36.0995 39.3692 36.0527 39.4696 36.0067C39.8886 36.0063 40.4831 35.9905 41.0932 35.9713C41.1427 35.9747 41.1925 35.978 41.2414 35.9815C41.1559 36.0139 41.1095 36.0473 41.1095 36.0804C41.1095 36.1339 41.2309 36.1805 41.4433 36.2181L41.0672 36.1983L40.0754 36.3449C39.9777 36.3518 39.8843 36.3589 39.8018 36.3659L39.8018 36.3659C39.7974 36.365 39.7932 36.3641 39.7888 36.3632L40.1112 36.2965ZM40.1112 36.2965L40.5395 36.2079C40.3283 36.2765 40.2596 36.2977 40.1112 36.2965ZM11.347 38.1776L11.4822 38.1721L11.4464 38.1668L11.347 38.1776ZM38.6197 37.335L36.7092 37.1623L35.0661 37.2067L36.6441 37.1688L38.6197 37.335ZM30.2066 37.4188L28.381 37.4059C28.3598 37.409 28.3387 37.4122 28.3175 37.4152L30.2066 37.4188L30.2066 37.4188ZM38.3477 36.943C38.6287 36.9126 38.8865 36.885 39.1913 36.8522L38.1245 36.9278C38.2 36.9328 38.2739 36.9379 38.3476 36.943L38.3477 36.943ZM37.5595 36.8925L39.5723 36.7574C39.2318 36.7366 38.9167 36.7116 38.6327 36.6825C36.4146 36.6624 34.2735 36.6425 33.1593 36.632L33.1186 36.7393L32.2749 36.7333L27.0637 37.0625L24.3392 36.6804L24.2219 36.6933L21.473 36.3497L22.4322 36.5663L21.3394 36.5759L23.5363 36.6144C23.5363 36.6144 25.4319 36.8375 25.5898 36.8639C25.742 36.8893 27.1144 37.0719 27.2184 37.0857L27.4317 37.0577C27.4317 37.0577 31.8022 36.7722 32.0127 36.7536C32.0496 36.7503 31.9798 36.768 31.8303 36.7999L32.0648 36.7645C34.5569 36.7616 36.2235 36.8155 37.5596 36.8924L37.5595 36.8925ZM45.7151 36.4441C46.1411 36.412 46.5365 36.3738 46.8892 36.3313C46.6528 36.2993 46.4245 36.2509 46.2069 36.2C46.0095 36.1954 45.8117 36.1908 45.619 36.1865C45.1675 36.2413 44.597 36.284 43.9742 36.305C43.922 36.3177 43.8687 36.3307 43.8162 36.3436L45.7151 36.4441ZM47.5537 36.2379C48.2276 36.1266 48.6334 35.9971 48.6334 35.8688C48.6334 35.868 48.6334 35.8672 48.6334 35.8663C48.2192 35.8762 47.6932 35.8778 47.1596 35.8773C46.983 35.8929 46.8072 35.9085 46.6352 35.9239C46.6192 35.9963 46.383 36.0691 46.0018 36.1323C46.0846 36.1525 46.172 36.1733 46.2591 36.194C46.7507 36.2058 47.2229 36.2195 47.5538 36.2379L47.5537 36.2379ZM43.5247 36.3282C43.5158 36.3244 43.5077 36.3205 43.4987 36.3167C43.4447 36.3175 43.3904 36.318 43.3375 36.3184L43.5247 36.3282ZM12.6787 37.2238C12.6877 37.2235 12.6974 37.2233 12.7064 37.223C13.678 37.1941 14.5702 37.1297 15.2729 37.0453C15.0682 37.0177 14.8705 36.9762 14.6818 36.9324C14.5122 36.9285 14.3425 36.9247 14.1769 36.9211C13.7732 36.9699 13.2633 37.0079 12.7064 37.0267C12.6255 37.0463 12.545 37.0662 12.4637 37.0862C12.573 37.1351 12.6643 37.1834 12.6787 37.2238L12.6787 37.2238ZM11.871 37.2384C11.9703 37.1955 12.1717 37.141 12.3937 37.0856C12.3564 37.0693 12.3197 37.053 12.2813 37.0371C11.6458 37.0463 11.0863 37.0262 10.7 36.9847C10.6067 36.9894 10.5134 36.9942 10.4199 36.999C10.104 37.0553 9.78275 37.1091 9.4917 37.1443C10.0779 37.2099 10.9137 37.2446 11.871 37.2384ZM37.1082 36.3817C37.0027 36.3301 36.947 36.2748 36.947 36.2165C36.947 36.184 36.9654 36.1514 36.9991 36.1189C36.3816 36.0959 35.4041 36.099 34.4342 36.0975L32.2226 36.0576L32.3562 35.9825L29.433 35.9045L32.1168 36.0296C32.1168 36.0296 31.6148 36.0447 31.0192 36.0671C31.2618 36.0746 33.6066 36.1476 33.9065 36.1505C34.0578 36.152 33.5814 36.1921 33.0434 36.2335L35.4862 36.1904V36.2463L35.1133 36.2544L32.8105 36.423L33.1753 36.4583L33.6964 36.368L36.1181 36.2276C36.1181 36.2276 36.5998 36.3089 37.1083 36.3818L37.1082 36.3817ZM15.8577 36.9633C16.4511 36.8657 16.8088 36.7523 16.8088 36.64C16.8088 36.6392 16.8088 36.6384 16.8088 36.6377C16.4498 36.6462 15.9959 36.6478 15.5336 36.6475C15.383 36.6608 15.2325 36.6741 15.0858 36.6872C15.0715 36.7516 14.86 36.8165 14.5191 36.8726C14.5904 36.89 14.6657 36.9078 14.7405 36.9254C15.1654 36.9356 15.5714 36.9475 15.8577 36.9633L15.8577 36.9633ZM32.4197 36.3849L34.9439 36.2579L31.8009 36.3248L32.4197 36.3849L32.4197 36.3849ZM9.03252 37.0765C9.37064 37.0479 9.86893 37.0198 10.3858 36.993C10.4373 36.9837 10.4895 36.9744 10.5405 36.9651C10.2911 36.9294 10.1448 36.8824 10.1448 36.8273C10.1448 36.7979 10.1873 36.7683 10.2637 36.7394C10.2256 36.7367 10.1865 36.7339 10.1481 36.7313C9.61839 36.7479 9.10352 36.7616 8.73941 36.7621C8.65103 36.8023 8.60424 36.8433 8.60424 36.8841C8.60424 36.9578 8.75897 37.0228 9.03254 37.0765L9.03252 37.0765ZM47.153 35.8703C47.6439 35.8272 48.1306 35.7867 48.5307 35.7626C48.3019 35.647 47.6974 35.5584 46.8599 35.5085C46.5857 35.5511 46.1861 35.6 45.7655 35.6488C45.7312 35.6689 45.6969 35.689 45.6645 35.7089C46.1559 35.7413 46.4986 35.7971 46.6026 35.8689C46.7836 35.8694 46.9679 35.8699 47.153 35.8703ZM41.111 35.9639C41.1784 35.9617 41.2455 35.9595 41.3129 35.9573C41.6159 35.8649 42.2321 35.7814 42.9985 35.7299C43.0036 35.7173 43.009 35.7048 43.0131 35.6922C42.6659 35.6536 42.3387 35.6144 42.1451 35.5777C41.137 35.6563 40.3138 35.7685 39.8196 35.8931C40.2029 35.9039 40.6577 35.9324 41.111 35.9639ZM15.5299 36.6392C15.9536 36.6023 16.3734 36.5676 16.7187 36.5468C16.5172 36.4456 15.984 36.3681 15.2465 36.3245C15.0093 36.3612 14.6652 36.4033 14.302 36.4453C14.2729 36.4623 14.2449 36.4792 14.2173 36.496C14.6567 36.5248 14.963 36.5745 15.056 36.6383C15.2116 36.6387 15.371 36.639 15.5299 36.6392ZM45.3222 35.691C45.45 35.6765 45.5783 35.662 45.7066 35.6472C45.8154 35.5849 45.9374 35.5237 46.0925 35.4758C45.4567 35.458 44.7371 35.4585 43.9738 35.4812C43.6484 35.4909 43.331 35.5041 43.0244 35.5204C43.0878 35.565 43.0867 35.625 43.0684 35.6869C43.1443 35.6953 43.2198 35.7036 43.2964 35.7118C43.4826 35.7018 43.6732 35.6939 43.8712 35.688C44.4028 35.6722 44.9009 35.6743 45.3222 35.691ZM10.1644 36.7229C10.2185 36.7212 10.2731 36.7195 10.3273 36.7177C10.5981 36.6354 11.1501 36.5611 11.8353 36.5152C11.8395 36.5049 11.8417 36.4946 11.8451 36.4844C11.5451 36.4511 11.2636 36.4173 11.0959 36.3857C10.2082 36.4547 9.484 36.5531 9.04891 36.6623C9.38039 36.6715 9.77236 36.696 10.1644 36.7229ZM29.5503 36.1396C29.9253 36.1195 30.2589 36.1015 30.5584 36.0852C30.3524 36.0938 30.1477 36.1029 29.9591 36.1125C29.8433 36.1183 29.7042 36.1278 29.5503 36.1396ZM23.4318 36.2632L21.1681 36.281L21.2039 36.2893L23.4318 36.2632ZM13.9113 36.4804C14.0193 36.4682 14.127 36.4558 14.2354 36.4434C14.33 36.3897 14.4366 36.3373 14.5709 36.296C14.011 36.2804 13.3783 36.2809 12.7062 36.3009C12.4197 36.3094 12.1407 36.3211 11.8708 36.3354C11.9257 36.3738 11.9252 36.4253 11.9099 36.4786C11.9729 36.4855 12.0368 36.4924 12.1004 36.4992C12.2669 36.4903 12.4379 36.4831 12.615 36.4778C13.0904 36.4636 13.5345 36.4656 13.9113 36.4804Z" stroke="#7D7D7C" stroke-width="0.479229" stroke-linecap="square"/>
</g>
<g id="path4181" filter="url(#filter1_f_123_91)">
<path d="M16.7148 1.6958L12.3038 7.57375L11.7169 7.76903L10.4737 10.0778L10.4122 10.0135C10.4122 10.0135 8.34686 12.8015 8.59474 14.4109C8.77095 15.5548 11.0795 15.4738 11.0795 15.4738L11.0843 15.4565L12.2785 16.3191L12.9916 17.916L13.0815 18.042C11.1394 18.2375 9.23205 18.5246 7.87559 20.2519L8.69142 20.5303C7.06799 22.1616 6 24.9292 6 28.0693C6 33.0856 8.72463 37.153 12.0864 37.153C15.4482 37.153 18.1728 33.0853 18.1728 28.0693C18.1728 26.7924 17.9961 25.5778 17.6774 24.4753L17.7847 24.6261L19.1099 25.7458L19.2345 27.4983L19.2124 27.5032L18.4394 32.8053L20.3341 33.176L20.9462 32.4567L21.1971 33.0104L26.2501 33.176L27.2692 32.1379L27.5753 33.0969L34.006 32.8695L31.6804 30.6532C32.778 29.8626 34.7058 29.4883 35.8675 28.8067C36.7207 32.9852 39.3117 36.0244 42.3769 36.0244C46.1369 36.0244 49.1842 31.4507 49.1842 25.8113C49.1842 22.2444 47.9644 19.1049 46.1173 17.2781L48.0452 15.1647C48.2534 13.0769 47.4083 12.7061 46.2609 12.1269L42.9115 15.6319C42.735 15.6113 42.5568 15.5973 42.3767 15.5973C41.1849 15.5973 40.0647 16.0582 39.0905 16.8653L37.5886 15.0213C37.9112 14.5605 38.2239 14.0956 38.5367 13.6297L37.8708 13.6518L40.1205 12.0031L43.9463 8.72796L46.9027 4.89169L43.8437 4.97325L40.1725 7.68981L39.4689 8.26822L43.6401 4.65192L37.8284 6.4094C37.8284 6.4094 37.7757 7.04986 37.5207 8.00869C37.2953 8.85631 37.1096 9.07984 37.3866 9.34103L36.7556 10.085L34.1541 10.7252L32.0133 11.2839H30.789L30.483 12.4036L30.7385 12.6409L30.3552 12.3764L30.483 12.322L30.789 11.2839L31.0951 10.2457C31.0951 10.2457 29.7333 6.26507 28.6623 5.62587C27.5914 4.98666 26.5148 5.90097 25.7406 6.09057C24.0094 6.51454 21.099 7.60839 20.6401 8.08781C20.1812 8.56721 20.2831 8.88797 20.1811 9.20752C20.0865 9.50377 20.46 9.65799 20.5171 9.67965C20.199 9.62824 19.882 9.57858 19.5689 9.52639C18.5884 9.36294 17.5965 9.556 16.6109 9.60549C15.5223 9.66016 13.3483 9.84525 13.3483 9.84525L14.1025 11.2913L13.0928 9.9268L13.5519 7.92957L15.7953 6.09053L17.3256 5.611C17.3256 5.611 18.0804 4.20511 18.3636 3.51244L18.7028 3.21336L16.7134 1.69562L16.7148 1.6958ZM10.7703 10.3871L10.9012 10.4069L10.8665 10.4885L10.7703 10.3871ZM37.1907 10.7889L35.34 13.7409L33.7482 13.7978L35.2769 13.6816L37.1907 10.7889ZM29.0405 12.9301L27.272 13.7947C27.2515 13.7628 27.231 13.7298 27.2105 13.6983L29.0405 12.9295L29.0405 12.9301ZM36.9272 15.9334C37.1995 16.2164 37.4492 16.4738 37.7444 16.7788L36.711 16.2149C36.7842 16.1216 36.8557 16.0272 36.9271 15.9331L36.9272 15.9334ZM36.1636 16.885L38.1136 17.8516C37.7837 18.2498 37.4784 18.6916 37.2033 19.174C35.0545 20.2811 32.9803 21.3564 31.9009 21.9178L31.8615 20.5533L31.0442 20.9538L25.9958 18.7143L23.3565 24.6689L23.2429 24.5478L20.5798 30.0179L21.509 26.8663L20.4504 27.1605L22.5786 25.8257C22.5786 25.8257 24.4151 22.2308 24.568 21.8312C24.7154 21.4464 26.0449 18.5736 26.1457 18.3558L26.3523 18.6351C26.3523 18.6351 30.5862 20.6332 30.7902 20.793C30.826 20.821 30.7583 20.6201 30.6135 20.2665L30.8407 20.6323C33.2548 19.7169 34.8694 18.3855 36.1637 16.8851L36.1636 16.885ZM44.0644 19.5299C44.4771 19.7796 44.8601 20.1194 45.2018 20.531C44.9728 21.0337 44.7516 21.743 44.5408 22.4813C44.3496 22.6158 44.1579 22.7508 43.9713 22.8792C43.5339 22.3471 42.9813 22.0168 42.3779 21.9845C42.3274 21.8415 42.2757 21.6946 42.2249 21.5494L44.0644 19.5299ZM45.8455 21.4777C46.4984 22.6517 46.8915 24.1623 46.8915 25.8108C46.8915 25.8216 46.8915 25.8322 46.8915 25.843C46.4902 25.8747 45.9807 26.0549 45.4638 26.2656C45.2927 26.1328 45.1223 26.0002 44.9558 25.8677C44.9403 24.9421 44.7114 24.0961 44.3421 23.4305C44.4224 23.1383 44.507 22.8374 44.5914 22.5382C45.0677 22.1977 45.5251 21.8413 45.8456 21.4778L45.8455 21.4777ZM41.9425 21.8584C41.9338 21.9107 41.926 21.9645 41.9172 22.0166C41.865 22.0272 41.8123 22.0411 41.7611 22.0561L41.9425 21.8584ZM12.0604 22.1427C12.069 22.1427 12.0785 22.1427 12.0872 22.1427C13.0284 22.1427 13.8927 22.6295 14.5735 23.4453C14.3752 23.8784 14.1837 24.4886 14.0008 25.1237C13.8366 25.2385 13.6722 25.3526 13.5118 25.4624C13.1207 24.9891 12.6267 24.6952 12.0872 24.6665C12.0088 24.446 11.9308 24.2202 11.8521 23.9941C11.958 23.3243 12.0464 22.6672 12.0604 22.1428L12.0604 22.1427ZM11.2779 22.2638C11.3741 22.7779 11.5692 23.401 11.7843 24.0286C11.7482 24.2527 11.7126 24.4762 11.6754 24.696C11.0597 24.82 10.5177 25.293 10.1435 25.9739C10.0531 25.9493 9.96274 25.9233 9.87218 25.8973C9.56615 25.2942 9.2549 24.7255 8.97295 24.3845C9.54085 23.317 10.3505 22.5503 11.2779 22.2638ZM38.3359 22.7977C38.4158 22.8561 38.5063 22.9115 38.6009 22.9633L39.5617 24.4686L39.9261 24.0707C39.7203 24.6352 39.6027 25.2813 39.6027 25.969C39.6027 26.3945 39.6477 26.8057 39.7305 27.1901C39.6831 27.254 39.6349 27.315 39.5869 27.378C38.9959 27.3651 38.42 27.3889 38.0141 27.5436C37.9168 26.9909 37.8642 26.4095 37.8642 25.8109C37.8642 25.29 37.9047 24.7829 37.9793 24.2957C38.3363 23.9198 38.5148 23.632 38.6356 23.5714L38.3233 22.8373C38.3275 22.8243 38.3316 22.8107 38.3359 22.7978L38.3359 22.7977ZM38.6356 23.5714L39.0506 24.5478C38.846 23.7463 38.7794 23.4995 38.6356 23.5714ZM35.7265 23.6257C35.6242 24.3297 35.5703 25.061 35.5703 25.8108C35.5703 26.2295 35.5882 26.6414 35.6208 27.0468C35.0225 27.5779 34.0756 27.9119 33.136 28.3024L30.9936 29.662L31.1229 30.5765L28.2911 32.6973L30.891 30.0624C30.891 30.0624 30.4047 30.0607 29.8277 30.0006C30.0627 29.8106 32.3343 27.9746 32.6248 27.8229C32.7714 27.7464 32.3098 27.4128 31.7887 27.0863L34.1552 26.7057V25.9864L33.7939 26.0259L31.5631 24.7381L31.9165 24.1449L32.4213 25.1064L34.7673 25.9852C34.7673 25.9852 35.2339 24.7557 35.7265 23.6246L35.7265 23.6257ZM15.14 24.2758C15.7149 25.3041 16.0614 26.6262 16.0614 28.0701C16.0614 28.0796 16.0614 28.0903 16.0614 28.0998C15.7136 28.1272 15.2739 28.2799 14.8261 28.4607C14.6802 28.3479 14.5343 28.2345 14.3922 28.122C14.3783 27.2988 14.1735 26.5462 13.8432 25.9543C13.9123 25.7041 13.9853 25.4466 14.0578 25.1905C14.4694 24.8968 14.8626 24.5889 15.14 24.2759L15.14 24.2758ZM31.1844 25.3783L33.6298 26.0457L30.585 26.3868L31.1845 25.3783H31.1844ZM8.52812 25.4321C8.85567 25.67 9.33839 25.8407 9.83914 25.9883C9.88897 26.0881 9.93957 26.187 9.98902 26.2873C9.74736 26.8415 9.60565 27.5015 9.60565 28.2104C9.60565 28.5888 9.64679 28.9535 9.72082 29.2955C9.68393 29.3449 9.64607 29.3951 9.6088 29.4438C9.09568 29.4335 8.5969 29.4535 8.24416 29.5872C8.15855 29.1031 8.11322 28.5938 8.11322 28.0695C8.11322 27.1217 8.26312 26.2267 8.52814 25.432L8.52812 25.4321ZM45.4573 26.3591C45.9329 26.7244 46.4044 27.0593 46.792 27.2168C46.5703 28.7897 45.9847 30.1603 45.1734 31.1223C44.9078 30.6796 44.5206 30.2035 44.1132 29.7381C44.08 29.4919 44.0468 29.2472 44.0154 29.0039C44.4915 28.399 44.8234 27.5498 44.9241 26.5865C45.0995 26.5108 45.2781 26.4339 45.4573 26.3591ZM39.6042 27.4664C39.6695 27.4682 39.7345 27.4713 39.7998 27.4738C40.0933 28.5466 40.6903 29.3847 41.4327 29.7528C41.4377 29.9129 41.4429 30.0719 41.4469 30.2324C41.1105 30.8618 40.7936 31.4911 40.606 32.0367C39.6293 31.4112 38.8318 30.2834 38.3531 28.8704C38.7245 28.5856 39.165 28.0453 39.6042 27.4664ZM14.8225 28.5689C15.233 28.8815 15.6396 29.1678 15.9741 29.303C15.7789 30.6807 15.2624 31.8815 14.548 32.724C14.3181 32.343 13.9848 31.9335 13.6329 31.5327C13.6048 31.3244 13.5776 31.1182 13.5509 30.9122C13.9765 30.3742 14.2733 29.6185 14.3634 28.7617C14.5141 28.6969 14.6685 28.633 14.8225 28.5689ZM43.6838 29.3648C43.8076 29.5019 43.9318 29.6397 44.0561 29.7801C44.1615 30.5407 44.2798 31.2798 44.43 31.8366C43.8141 32.3093 43.117 32.5782 42.3775 32.5782C42.0623 32.5782 41.7548 32.5295 41.4578 32.4373C41.5192 31.8391 41.5181 31.0683 41.5004 30.2794C41.5739 30.1425 41.647 30.0068 41.7212 29.8715C41.9017 29.9287 42.0863 29.9581 42.2781 29.9581C42.7931 29.9581 43.2756 29.7404 43.6838 29.3648ZM9.62464 29.5451C9.67707 29.5466 9.7299 29.5481 9.7824 29.5501C10.0448 30.5042 10.5795 31.2495 11.2433 31.577C11.2474 31.7077 11.2495 31.839 11.2528 31.97C10.9622 32.5121 10.6895 33.0548 10.5271 33.5248C9.66707 32.9769 8.96549 31.9891 8.544 30.7514C8.86512 30.5064 9.24484 30.0419 9.62464 29.5451ZM28.4048 29.6292C28.768 29.7448 29.0912 29.8482 29.3813 29.9431C29.1817 29.9116 28.9834 29.8725 28.8008 29.822C28.6885 29.791 28.5538 29.7226 28.4048 29.6292ZM22.4774 30.3806L20.2845 31.0183L20.3192 30.8972L22.4774 30.3806ZM13.2545 31.2309C13.3591 31.3462 13.4634 31.4641 13.5684 31.5819C13.66 32.2363 13.7633 32.8697 13.8934 33.3493C13.351 33.7633 12.7381 33.9994 12.087 33.9994C11.8094 33.9994 11.5392 33.9566 11.2777 33.8758C11.3309 33.3608 11.3304 32.6982 11.3156 32.0194C11.3766 31.9064 11.4385 31.7926 11.5001 31.6808C11.6615 31.7317 11.8271 31.7599 11.9987 31.7599C12.4592 31.7599 12.8894 31.565 13.2545 31.2309Z" fill="#666666"/>
<path d="M30.789 11.2839H32.0133L34.1541 10.7252L36.7556 10.085L37.3866 9.34103C37.1096 9.07984 37.2953 8.85631 37.5207 8.00869C37.7757 7.04986 37.8284 6.4094 37.8284 6.4094L43.6401 4.65192L39.4689 8.26822L40.1725 7.68981L43.8437 4.97325L46.9027 4.89169L43.9463 8.72796L40.1205 12.0031L37.8708 13.6518L38.5367 13.6297C38.2239 14.0956 37.9112 14.5605 37.5886 15.0213L39.0905 16.8653C40.0647 16.0582 41.1849 15.5973 42.3767 15.5973C42.5568 15.5973 42.735 15.6113 42.9115 15.6319L46.2609 12.1269C47.4083 12.7061 48.2534 13.0769 48.0452 15.1647L46.1173 17.2781C47.9644 19.1049 49.1842 22.2444 49.1842 25.8113C49.1842 31.4507 46.1369 36.0244 42.3769 36.0244C39.3117 36.0244 36.7207 32.9852 35.8675 28.8067C34.7058 29.4883 32.778 29.8626 31.6804 30.6532L34.006 32.8695L27.5753 33.0969L27.2692 32.1379L26.2501 33.176L21.1971 33.0104L20.9462 32.4567L20.3341 33.176L18.4394 32.8053L19.2124 27.5032L19.2345 27.4983L19.1099 25.7458L17.7847 24.6261L17.6774 24.4753C17.9961 25.5778 18.1728 26.7924 18.1728 28.0693C18.1728 33.0853 15.4482 37.153 12.0864 37.153C8.72463 37.153 6 33.0856 6 28.0693C6 24.9292 7.06799 22.1616 8.69142 20.5303L7.87559 20.2519C9.23205 18.5246 11.1394 18.2375 13.0815 18.042L12.9916 17.916L12.2785 16.3191L11.0843 15.4565L11.0795 15.4738C11.0795 15.4738 8.77095 15.5548 8.59474 14.4109C8.34686 12.8015 10.4122 10.0135 10.4122 10.0135L10.4737 10.0778L11.7169 7.76903L12.3038 7.57375L16.7148 1.6958L16.7134 1.69562L18.7028 3.21336L18.3636 3.51244C18.0804 4.20511 17.3256 5.611 17.3256 5.611L15.7953 6.09053L13.5519 7.92957L13.0928 9.9268L14.1025 11.2913L13.3483 9.84525C13.3483 9.84525 15.5223 9.66016 16.6109 9.60549C17.5965 9.556 18.5884 9.36294 19.5689 9.52639C19.882 9.57858 20.199 9.62824 20.5171 9.67965C20.46 9.65799 20.0865 9.50377 20.1811 9.20752C20.2831 8.88797 20.1812 8.56721 20.6401 8.08781C21.099 7.60839 24.0094 6.51454 25.7406 6.09057C26.5148 5.90097 27.5914 4.98666 28.6623 5.62587C29.7333 6.26507 31.0951 10.2457 31.0951 10.2457L30.789 11.2839ZM30.789 11.2839L30.483 12.4036L30.7385 12.6409L30.3552 12.3764L30.483 12.322L30.789 11.2839ZM38.6356 23.5714C38.5148 23.632 38.3363 23.9198 37.9793 24.2957C37.9047 24.7829 37.8642 25.29 37.8642 25.8109C37.8642 26.4095 37.9168 26.9909 38.0141 27.5436C38.42 27.3889 38.9959 27.3651 39.5869 27.378C39.6349 27.315 39.6831 27.254 39.7305 27.1901C39.6477 26.8057 39.6027 26.3945 39.6027 25.969C39.6027 25.2813 39.7203 24.6352 39.9261 24.0707L39.5617 24.4686L38.6009 22.9633C38.5063 22.9115 38.4158 22.8561 38.3359 22.7977L38.3359 22.7978C38.3316 22.8107 38.3275 22.8243 38.3233 22.8373L38.6356 23.5714ZM38.6356 23.5714L39.0506 24.5478C38.846 23.7463 38.7794 23.4995 38.6356 23.5714ZM10.7703 10.3871L10.9012 10.4069L10.8665 10.4885L10.7703 10.3871ZM37.1907 10.7889L35.34 13.7409L33.7482 13.7978L35.2769 13.6816L37.1907 10.7889ZM29.0405 12.9301L27.272 13.7947C27.2515 13.7628 27.231 13.7298 27.2105 13.6983L29.0405 12.9295L29.0405 12.9301ZM36.9272 15.9334C37.1995 16.2164 37.4492 16.4738 37.7444 16.7788L36.711 16.2149C36.7842 16.1216 36.8557 16.0272 36.9271 15.9331L36.9272 15.9334ZM36.1636 16.885L38.1136 17.8516C37.7837 18.2498 37.4784 18.6916 37.2033 19.174C35.0545 20.2811 32.9803 21.3564 31.9009 21.9178L31.8615 20.5533L31.0442 20.9538L25.9958 18.7143L23.3565 24.6689L23.2429 24.5478L20.5798 30.0179L21.509 26.8663L20.4504 27.1605L22.5786 25.8257C22.5786 25.8257 24.4151 22.2308 24.568 21.8312C24.7154 21.4464 26.0449 18.5736 26.1457 18.3558L26.3523 18.6351C26.3523 18.6351 30.5862 20.6332 30.7902 20.793C30.826 20.821 30.7583 20.6201 30.6135 20.2665L30.8407 20.6323C33.2548 19.7169 34.8694 18.3855 36.1637 16.8851L36.1636 16.885ZM44.0644 19.5299C44.4771 19.7796 44.8601 20.1194 45.2018 20.531C44.9728 21.0337 44.7516 21.743 44.5408 22.4813C44.3496 22.6158 44.1579 22.7508 43.9713 22.8792C43.5339 22.3471 42.9812 22.0168 42.3779 21.9845C42.3274 21.8415 42.2757 21.6946 42.2249 21.5494L44.0644 19.5299ZM45.8455 21.4777C46.4984 22.6517 46.8915 24.1623 46.8915 25.8108C46.8915 25.8216 46.8915 25.8322 46.8915 25.843C46.4903 25.8747 45.9807 26.0549 45.4638 26.2656C45.2927 26.1328 45.1223 26.0002 44.9558 25.8677C44.9403 24.9421 44.7114 24.0961 44.3421 23.4305C44.4224 23.1383 44.5071 22.8374 44.5914 22.5382C45.0677 22.1977 45.5251 21.8413 45.8456 21.4778L45.8455 21.4777ZM41.9425 21.8584C41.9338 21.9107 41.926 21.9645 41.9172 22.0166C41.865 22.0272 41.8123 22.0411 41.7611 22.0561L41.9425 21.8584ZM12.0604 22.1427C12.069 22.1427 12.0785 22.1427 12.0872 22.1427C13.0284 22.1427 13.8927 22.6295 14.5735 23.4453C14.3752 23.8784 14.1837 24.4886 14.0008 25.1237C13.8366 25.2385 13.6722 25.3526 13.5118 25.4624C13.1207 24.9891 12.6267 24.6952 12.0872 24.6665C12.0088 24.446 11.9308 24.2202 11.8521 23.9941C11.958 23.3243 12.0464 22.6672 12.0604 22.1428L12.0604 22.1427ZM11.2779 22.2638C11.3741 22.7779 11.5692 23.401 11.7843 24.0286C11.7482 24.2527 11.7126 24.4762 11.6754 24.696C11.0597 24.82 10.5177 25.293 10.1435 25.9739C10.0531 25.9493 9.96274 25.9233 9.87218 25.8973C9.56615 25.2942 9.2549 24.7255 8.97295 24.3845C9.54085 23.317 10.3505 22.5503 11.2779 22.2638ZM35.7265 23.6257C35.6242 24.3297 35.5703 25.061 35.5703 25.8108C35.5703 26.2295 35.5882 26.6414 35.6208 27.0468C35.0225 27.5779 34.0756 27.9119 33.136 28.3024L30.9936 29.662L31.1229 30.5765L28.2911 32.6973L30.891 30.0624C30.891 30.0624 30.4047 30.0607 29.8277 30.0006C30.0627 29.8106 32.3343 27.9746 32.6248 27.8229C32.7714 27.7464 32.3098 27.4128 31.7887 27.0863L34.1552 26.7057V25.9864L33.7939 26.0259L31.5631 24.7381L31.9165 24.1449L32.4213 25.1064L34.7673 25.9852C34.7673 25.9852 35.234 24.7557 35.7265 23.6246L35.7265 23.6257ZM15.14 24.2758C15.7149 25.3041 16.0614 26.6262 16.0614 28.0701C16.0614 28.0796 16.0614 28.0903 16.0614 28.0998C15.7136 28.1272 15.2739 28.2799 14.8261 28.4607C14.6802 28.3479 14.5343 28.2345 14.3922 28.122C14.3783 27.2988 14.1735 26.5462 13.8432 25.9543C13.9123 25.7041 13.9853 25.4466 14.0578 25.1905C14.4694 24.8968 14.8626 24.5889 15.14 24.2759L15.14 24.2758ZM31.1844 25.3783L33.6298 26.0457L30.585 26.3868L31.1845 25.3783H31.1844ZM8.52812 25.4321C8.85567 25.67 9.33839 25.8407 9.83914 25.9883C9.88897 26.0881 9.93957 26.187 9.98902 26.2873C9.74736 26.8415 9.60565 27.5015 9.60565 28.2104C9.60565 28.5888 9.64679 28.9535 9.72082 29.2955C9.68393 29.3449 9.64607 29.3951 9.6088 29.4438C9.09568 29.4335 8.5969 29.4535 8.24416 29.5872C8.15855 29.1031 8.11322 28.5938 8.11322 28.0695C8.11322 27.1217 8.26312 26.2267 8.52814 25.432L8.52812 25.4321ZM45.4573 26.3591C45.9329 26.7244 46.4044 27.0593 46.792 27.2168C46.5703 28.7897 45.9847 30.1603 45.1734 31.1223C44.9078 30.6796 44.5206 30.2035 44.1132 29.7381C44.08 29.4919 44.0468 29.2472 44.0154 29.0039C44.4915 28.399 44.8234 27.5498 44.9241 26.5865C45.0995 26.5108 45.2781 26.4339 45.4573 26.3591ZM39.6042 27.4664C39.6695 27.4682 39.7345 27.4713 39.7998 27.4738C40.0933 28.5467 40.6903 29.3847 41.4327 29.7528C41.4377 29.9129 41.4429 30.0719 41.4469 30.2324C41.1105 30.8618 40.7936 31.4911 40.606 32.0367C39.6293 31.4112 38.8318 30.2834 38.3531 28.8704C38.7245 28.5856 39.165 28.0453 39.6042 27.4664ZM14.8225 28.5689C15.233 28.8815 15.6396 29.1678 15.9741 29.303C15.7789 30.6807 15.2624 31.8815 14.548 32.724C14.3181 32.343 13.9848 31.9335 13.6329 31.5327C13.6048 31.3244 13.5776 31.1182 13.5509 30.9122C13.9765 30.3742 14.2733 29.6185 14.3634 28.7617C14.5141 28.6969 14.6685 28.633 14.8225 28.5689ZM43.6838 29.3648C43.8076 29.5019 43.9318 29.6397 44.0561 29.7801C44.1615 30.5407 44.2798 31.2798 44.43 31.8366C43.8141 32.3093 43.117 32.5782 42.3775 32.5782C42.0623 32.5782 41.7548 32.5295 41.4578 32.4373C41.5192 31.8391 41.5181 31.0683 41.5004 30.2794C41.5739 30.1425 41.647 30.0068 41.7212 29.8715C41.9017 29.9287 42.0863 29.9581 42.2781 29.9581C42.7931 29.9581 43.2756 29.7404 43.6838 29.3648ZM9.62464 29.5451C9.67707 29.5466 9.7299 29.5481 9.7824 29.5501C10.0448 30.5042 10.5795 31.2495 11.2433 31.577C11.2474 31.7077 11.2495 31.839 11.2528 31.97C10.9622 32.5121 10.6895 33.0548 10.5271 33.5248C9.66707 32.9769 8.96549 31.9891 8.544 30.7514C8.86512 30.5064 9.24484 30.0419 9.62464 29.5451ZM28.4048 29.6292C28.768 29.7448 29.0912 29.8482 29.3813 29.9431C29.1817 29.9116 28.9834 29.8725 28.8008 29.822C28.6885 29.791 28.5538 29.7226 28.4048 29.6292ZM22.4774 30.3806L20.2845 31.0183L20.3192 30.8972L22.4774 30.3806ZM13.2545 31.2309C13.3591 31.3462 13.4634 31.4641 13.5684 31.5819C13.66 32.2363 13.7633 32.8697 13.8934 33.3493C13.351 33.7633 12.7381 33.9994 12.087 33.9994C11.8094 33.9994 11.5392 33.9566 11.2777 33.8758C11.3309 33.3608 11.3304 32.6982 11.3156 32.0194C11.3766 31.9064 11.4385 31.7926 11.5001 31.6808C11.6615 31.7317 11.8271 31.7599 11.9987 31.7599C12.4592 31.7599 12.8894 31.565 13.2545 31.2309Z" stroke="#7D7D7C" stroke-width="0.479172" stroke-linecap="square"/>
</g>
<g id="path3951">
<path d="M42.3779 16.1285C38.8129 16.1285 35.9236 20.464 35.9236 25.8111C35.9236 31.1586 38.8129 35.4938 42.3779 35.4938C45.9428 35.4938 48.8322 31.1583 48.8322 25.8111C48.8322 20.4637 45.9428 16.1285 42.3779 16.1285ZM42.3484 19.0422C42.3582 19.0423 42.368 19.0422 42.3779 19.0422C43.4469 19.0422 44.4285 19.5996 45.2018 20.531C44.9604 21.061 44.7272 21.8204 44.5063 22.6015C45.0133 22.2428 45.5056 21.8636 45.8453 21.4782C46.4982 22.6522 46.8913 24.1627 46.8913 25.8114C46.8913 25.8222 46.8913 25.8325 46.8913 25.8434C46.4674 25.8769 45.9237 26.0734 45.377 26.2996C45.8796 26.6889 46.383 27.0512 46.7924 27.2175C46.5707 28.7903 45.9855 30.1615 45.1741 31.1235C44.8919 30.6533 44.473 30.1462 44.0379 29.6533C44.1478 30.4592 44.2712 31.2502 44.43 31.8385C43.814 32.3112 43.1174 32.5803 42.3779 32.5803C42.0626 32.5803 41.7556 32.5311 41.4586 32.4389C41.5237 31.8042 41.5194 30.9751 41.4985 30.1363C41.143 30.7976 40.8041 31.4651 40.6069 32.0386C39.6302 31.4132 38.8325 30.2847 38.3537 28.8717C38.7436 28.5726 39.2093 27.9915 39.6702 27.3802C39.0501 27.3633 38.4388 27.3802 38.0137 27.5429C37.9164 26.9902 37.8645 26.4099 37.8645 25.8113C37.8645 24.7292 38.0353 23.7063 38.3363 22.7991C38.7316 23.0878 39.3256 23.2905 39.9321 23.4661C39.5627 22.7271 39.1825 22.0189 38.841 21.6038C39.486 20.3849 40.4053 19.5083 41.4584 19.1811C41.575 19.8074 41.8194 20.5746 42.0829 21.3396C42.2158 20.5117 42.3313 19.689 42.3484 19.0422ZM42.0829 21.3396C42.0356 21.6344 41.9892 21.9265 41.9408 22.2146C41.2879 22.3468 40.714 22.8495 40.3172 23.5754C40.1889 23.5402 40.061 23.5035 39.9321 23.4661C40.0065 23.6149 40.0793 23.7625 40.1524 23.9116C39.8962 24.5023 39.7466 25.205 39.7466 25.9607C39.7466 26.3641 39.7895 26.7541 39.868 27.1187C39.8026 27.2068 39.7361 27.2927 39.6702 27.3802C39.7583 27.3827 39.8459 27.3847 39.9339 27.3881C40.2121 28.4052 40.779 29.2002 41.4829 29.5492C41.489 29.7448 41.4936 29.9395 41.4985 30.1363C41.5843 29.9766 41.669 29.8186 41.7552 29.6613C41.9263 29.7155 42.1023 29.744 42.2842 29.744C42.7725 29.744 43.2293 29.5372 43.6164 29.1811C43.7566 29.3364 43.8967 29.4933 44.0379 29.6533C44.0007 29.3801 43.9651 29.109 43.9303 28.8395C44.3817 28.266 44.6969 27.4609 44.7924 26.5476C44.9847 26.4646 45.1799 26.3811 45.377 26.2996C45.1899 26.1546 45.0038 26.0092 44.8219 25.8646C44.8072 24.987 44.591 24.185 44.2408 23.5539C44.3266 23.2417 44.4158 22.9212 44.5063 22.6015C44.299 22.7482 44.0911 22.8917 43.8887 23.031C43.474 22.5265 42.95 22.2132 42.3779 22.1825C42.2801 21.9057 42.1812 21.6243 42.083 21.3394L42.0829 21.3396Z" fill="#666666"/>
<path d="M44.5063 22.6015C44.7272 21.8204 44.9604 21.061 45.2018 20.531C44.4285 19.5996 43.4469 19.0422 42.3779 19.0422C42.368 19.0422 42.3582 19.0423 42.3484 19.0422C42.3313 19.689 42.2158 20.5117 42.0829 21.3396M44.5063 22.6015C45.0133 22.2428 45.5056 21.8636 45.8453 21.4782C46.4982 22.6522 46.8913 24.1627 46.8913 25.8114C46.8913 25.8222 46.8913 25.8325 46.8913 25.8434C46.4674 25.8769 45.9237 26.0734 45.377 26.2996M44.5063 22.6015C44.4158 22.9212 44.3266 23.2417 44.2408 23.5539C44.591 24.185 44.8072 24.987 44.8219 25.8646C45.0038 26.0092 45.1899 26.1546 45.377 26.2996M44.5063 22.6015C44.299 22.7482 44.0911 22.8917 43.8887 23.031C43.474 22.5265 42.95 22.2132 42.3779 22.1825C42.2801 21.9057 42.1812 21.6243 42.083 21.3394L42.0829 21.3396M45.377 26.2996C45.8796 26.6889 46.383 27.0512 46.7924 27.2175C46.5707 28.7903 45.9855 30.1615 45.1741 31.1235C44.8919 30.6533 44.473 30.1462 44.0379 29.6534M45.377 26.2996C45.1799 26.3811 44.9847 26.4646 44.7924 26.5476C44.6969 27.4609 44.3817 28.266 43.9303 28.8395C43.9651 29.109 44.0007 29.3801 44.0379 29.6534M44.0379 29.6534C44.1478 30.4592 44.2712 31.2502 44.43 31.8385C43.814 32.3112 43.1174 32.5803 42.3779 32.5803C42.0626 32.5803 41.7556 32.5311 41.4586 32.4389C41.5237 31.8042 41.5194 30.9751 41.4985 30.1363M44.0379 29.6534C43.8967 29.4933 43.7566 29.3364 43.6164 29.1811C43.2293 29.5372 42.7725 29.744 42.2842 29.744C42.1023 29.744 41.9263 29.7155 41.7552 29.6613C41.669 29.8186 41.5843 29.9766 41.4985 30.1363M41.4985 30.1363C41.143 30.7976 40.8041 31.4651 40.6069 32.0386C39.6302 31.4132 38.8325 30.2847 38.3537 28.8717C38.7436 28.5726 39.2093 27.9915 39.6702 27.3802M41.4985 30.1363C41.4936 29.9395 41.489 29.7448 41.4829 29.5492C40.779 29.2002 40.2121 28.4052 39.9339 27.3881C39.8459 27.3847 39.7583 27.3827 39.6702 27.3802M39.6702 27.3802C39.0501 27.3633 38.4388 27.3802 38.0137 27.5429C37.9164 26.9902 37.8645 26.4099 37.8645 25.8113C37.8645 24.7292 38.0353 23.7063 38.3363 22.7991C38.7316 23.0878 39.3256 23.2905 39.9321 23.4661M39.6702 27.3802C39.7361 27.2927 39.8026 27.2068 39.868 27.1187C39.7895 26.7541 39.7466 26.3641 39.7466 25.9607C39.7466 25.205 39.8962 24.5023 40.1524 23.9116C40.0793 23.7625 40.0065 23.6149 39.9321 23.4661M39.9321 23.4661C39.5627 22.7271 39.1825 22.0189 38.841 21.6038C39.486 20.3849 40.4053 19.5083 41.4584 19.1811C41.575 19.8074 41.8194 20.5746 42.0829 21.3396M39.9321 23.4661C40.061 23.5035 40.1889 23.5402 40.3172 23.5754C40.714 22.8495 41.2879 22.3468 41.9408 22.2146C41.9892 21.9265 42.0356 21.6344 42.0829 21.3396M42.3779 16.1285C38.8129 16.1285 35.9236 20.464 35.9236 25.8111C35.9236 31.1586 38.8129 35.4938 42.3779 35.4938C45.9428 35.4938 48.8322 31.1583 48.8322 25.8111C48.8322 20.4637 45.9428 16.1285 42.3779 16.1285Z" stroke="#7D7D7C" stroke-width="0.47918" stroke-linecap="square"/>
</g>
<g id="path3949">
<path d="M12.0869 19.5903C8.94799 19.5903 6.40381 23.3876 6.40381 28.0713C6.40381 32.7549 8.94799 36.5522 12.0869 36.5522C15.2258 36.5522 17.77 32.7549 17.77 28.0713C17.77 23.3876 15.2258 19.5903 12.0869 19.5903ZM12.0609 22.1423C12.0696 22.1424 12.0782 22.1423 12.0869 22.1423C13.0281 22.1423 13.8925 22.6305 14.5733 23.4464C14.3607 23.9106 14.1554 24.5757 13.9608 25.2599C14.4073 24.9456 14.8407 24.6135 15.1399 24.276C15.7148 25.3042 16.0609 26.6273 16.0609 28.0712C16.0609 28.0806 16.0609 28.0898 16.0609 28.0993C15.6877 28.1286 15.2089 28.3008 14.7275 28.4989C15.1701 28.8399 15.6133 29.1571 15.9738 29.3028C15.7786 30.6805 15.2633 31.8816 14.5488 32.7243C14.3004 32.3125 13.9315 31.8683 13.5484 31.4366C13.6452 32.1424 13.7538 32.8353 13.8936 33.3506C13.3513 33.7646 12.7379 34.0003 12.0869 34.0003C11.8093 34.0003 11.5389 33.9572 11.2774 33.8764C11.3348 33.3205 11.3309 32.5943 11.3125 31.8596C10.9996 32.4389 10.7011 33.0235 10.5275 33.5259C9.6675 32.978 8.96502 31.9896 8.54347 30.7518C8.88679 30.4899 9.29687 29.9809 9.7027 29.4454C9.15672 29.4306 8.61844 29.4455 8.24412 29.588C8.15851 29.1038 8.11277 28.5956 8.11277 28.0713C8.11277 27.1235 8.26318 26.2276 8.5282 25.4328C8.8763 25.6857 9.3993 25.8633 9.93333 26.0171C9.60804 25.3697 9.27331 24.7494 8.97266 24.3859C9.54058 23.3183 10.35 22.5505 11.2774 22.2639C11.38 22.8125 11.5952 23.4844 11.8272 24.1545C11.9442 23.4294 12.0459 22.7088 12.0609 22.1423ZM11.8272 24.1545C11.7855 24.4127 11.7447 24.6686 11.702 24.921C11.1271 25.0368 10.6218 25.4771 10.2725 26.1128C10.1595 26.082 10.0469 26.0498 9.93333 26.0171C9.99884 26.1474 10.063 26.2767 10.1274 26.4073C9.90172 26.9247 9.76996 27.5402 9.76996 28.2021C9.76996 28.5554 9.80775 28.897 9.87688 29.2163C9.81929 29.2935 9.76075 29.3689 9.7027 29.4454C9.78027 29.448 9.85747 29.4495 9.93491 29.4525C10.1799 30.3434 10.679 31.0397 11.2988 31.3455C11.3042 31.5167 11.3082 31.6872 11.3125 31.8596C11.3881 31.7198 11.4626 31.5814 11.5386 31.4436C11.6892 31.4911 11.8442 31.5161 12.0044 31.5161C12.4343 31.5161 12.8366 31.3349 13.1774 31.023C13.3009 31.1591 13.4241 31.2964 13.5484 31.4366C13.5157 31.1973 13.4844 30.9598 13.4538 30.7238C13.8513 30.2215 14.1288 29.5163 14.2129 28.7164C14.3822 28.6437 14.554 28.5703 14.7275 28.4989C14.5628 28.3719 14.399 28.2448 14.2389 28.1181C14.2259 27.3494 14.0356 26.647 13.7272 26.0943C13.8027 25.8208 13.8812 25.5399 13.9608 25.2599C13.7783 25.3883 13.5954 25.5143 13.4172 25.6363C13.052 25.1944 12.5906 24.92 12.0869 24.8931C12.0007 24.6507 11.9136 24.404 11.8272 24.1545Z" fill="#364E59"/>
<path d="M13.9608 25.2599C14.1554 24.5757 14.3607 23.9106 14.5733 23.4464C13.8925 22.6305 13.0281 22.1423 12.0869 22.1423C12.0782 22.1423 12.0696 22.1424 12.0609 22.1423C12.0459 22.7088 11.9442 23.4294 11.8272 24.1545M13.9608 25.2599C14.4073 24.9456 14.8407 24.6135 15.1399 24.276C15.7148 25.3042 16.0609 26.6273 16.0609 28.0712C16.0609 28.0806 16.0609 28.0898 16.0609 28.0993C15.6877 28.1286 15.2089 28.3008 14.7275 28.4989M13.9608 25.2599C13.8812 25.5399 13.8027 25.8208 13.7272 26.0943C14.0356 26.647 14.2259 27.3494 14.2389 28.1181C14.399 28.2448 14.5628 28.3719 14.7275 28.4989M13.9608 25.2599C13.7783 25.3883 13.5954 25.5143 13.4172 25.6363C13.052 25.1944 12.5906 24.92 12.0869 24.8931C12.0007 24.6507 11.9136 24.404 11.8272 24.1545M14.7275 28.4989C15.1701 28.8399 15.6133 29.1571 15.9738 29.3028C15.7786 30.6805 15.2633 31.8816 14.5488 32.7243C14.3004 32.3125 13.9315 31.8683 13.5484 31.4366M14.7275 28.4989C14.554 28.5703 14.3822 28.6437 14.2129 28.7164C14.1288 29.5163 13.8513 30.2215 13.4538 30.7238C13.4844 30.9598 13.5157 31.1973 13.5484 31.4366M13.5484 31.4366C13.6452 32.1424 13.7538 32.8353 13.8936 33.3506C13.3513 33.7646 12.7379 34.0003 12.0869 34.0003C11.8093 34.0003 11.5389 33.9572 11.2774 33.8764C11.3348 33.3205 11.3309 32.5943 11.3125 31.8596M13.5484 31.4366C13.4241 31.2964 13.3009 31.1591 13.1774 31.023C12.8366 31.3349 12.4343 31.5161 12.0044 31.5161C11.8442 31.5161 11.6892 31.4911 11.5386 31.4436C11.4626 31.5814 11.3881 31.7198 11.3125 31.8596M11.3125 31.8596C10.9996 32.4389 10.7011 33.0235 10.5275 33.5259C9.6675 32.978 8.96502 31.9896 8.54347 30.7518C8.88679 30.4899 9.29687 29.9809 9.7027 29.4454M11.3125 31.8596C11.3082 31.6872 11.3042 31.5167 11.2988 31.3455C10.679 31.0397 10.1799 30.3434 9.93491 29.4525C9.85747 29.4495 9.78027 29.448 9.7027 29.4454M9.7027 29.4454C9.15672 29.4306 8.61844 29.4455 8.24412 29.588C8.15851 29.1038 8.11277 28.5956 8.11277 28.0713C8.11277 27.1235 8.26318 26.2276 8.5282 25.4328C8.8763 25.6857 9.3993 25.8633 9.93333 26.0171M9.7027 29.4454C9.76075 29.3689 9.81929 29.2935 9.87688 29.2163C9.80775 28.897 9.76996 28.5554 9.76996 28.2021C9.76996 27.5402 9.90172 26.9247 10.1274 26.4073C10.063 26.2767 9.99884 26.1474 9.93333 26.0171M9.93333 26.0171C9.60804 25.3697 9.27331 24.7494 8.97266 24.3859C9.54058 23.3183 10.35 22.5505 11.2774 22.2639C11.38 22.8125 11.5952 23.4844 11.8272 24.1545M9.93333 26.0171C10.0469 26.0498 10.1595 26.082 10.2725 26.1128C10.6218 25.4771 11.1271 25.0368 11.702 24.921C11.7447 24.6686 11.7855 24.4126 11.8272 24.1545M12.0869 19.5903C8.94799 19.5903 6.40381 23.3876 6.40381 28.0713C6.40381 32.7549 8.94799 36.5522 12.0869 36.5522C15.2258 36.5522 17.77 32.7549 17.77 28.0713C17.77 23.3876 15.2258 19.5903 12.0869 19.5903Z" stroke="#7D7D7C" stroke-width="0.47918" stroke-linecap="square"/>
</g>
<g id="path3167">
<path d="M42.378 15.6002C38.6181 15.6002 35.5706 20.1125 35.5706 25.6785C35.5706 31.2442 38.6181 35.7568 42.378 35.7568C46.1379 35.7568 49.1854 31.2445 49.1854 25.6785C49.1854 20.1125 46.1379 15.6002 42.378 15.6002ZM42.3469 18.6328C42.3573 18.6329 42.3676 18.6328 42.378 18.6328C43.5055 18.6328 44.5408 19.213 45.3563 20.1825C45.1017 20.7341 44.8557 21.5245 44.6227 22.3375C45.1575 21.9641 45.6767 21.5695 46.035 21.1683C46.7237 22.3903 47.1382 23.9625 47.1382 25.6784C47.1382 25.6897 47.1383 25.7004 47.1382 25.7117C46.6912 25.7467 46.1177 25.9512 45.5411 26.1866C46.0712 26.5918 46.6022 26.9688 47.034 27.1419C46.8001 28.779 46.1828 30.2065 45.3271 31.2078C45.0295 30.7184 44.5876 30.1906 44.1288 29.6775C44.2446 30.5163 44.3748 31.3396 44.5422 31.952C43.8926 32.444 43.1579 32.7241 42.378 32.7241C42.0455 32.7241 41.7216 32.6729 41.4084 32.5769C41.4771 31.9163 41.4725 31.0533 41.4504 30.1802C41.0755 30.8685 40.718 31.5633 40.5101 32.1603C39.4799 31.5092 38.6384 30.3347 38.1336 28.8639C38.5449 28.5527 39.0361 27.9478 39.5222 27.3115C38.8682 27.2941 38.2234 27.3115 37.775 27.4809C37.6725 26.9056 37.6177 26.3016 37.6177 25.6786C37.6177 24.5522 37.7979 23.4875 38.1153 22.5433C38.5323 22.8437 39.1587 23.0548 39.7985 23.2375C39.4088 22.4683 39.0079 21.7312 38.6477 21.2991C39.328 20.0305 40.2975 19.118 41.4083 18.7774C41.5313 19.4293 41.7891 20.2279 42.067 21.0242C42.2071 20.1625 42.3288 19.306 42.3469 18.6328ZM42.067 21.0242C42.0171 21.3309 41.968 21.6349 41.917 21.9348C41.2284 22.0724 40.6231 22.5957 40.2045 23.3512C40.0692 23.3146 39.9344 23.2762 39.7984 23.2373C39.8769 23.3922 39.9537 23.5459 40.0307 23.7011C39.7605 24.3159 39.6026 25.0474 39.6026 25.834C39.6026 26.2538 39.6479 26.6598 39.7307 27.0392C39.6617 27.1309 39.5917 27.2205 39.5222 27.3115C39.6151 27.3141 39.7075 27.3163 39.8002 27.3196C40.0937 28.3783 40.6916 29.2057 41.4339 29.5691C41.4403 29.7726 41.4453 29.9754 41.4504 30.1802C41.541 30.014 41.6302 29.8494 41.7211 29.6857C41.9016 29.7421 42.0873 29.7718 42.2791 29.7718C42.7941 29.7718 43.2759 29.5565 43.6842 29.1858C43.8321 29.3475 43.9798 29.511 44.1288 29.6775C44.0895 29.3932 44.0519 29.1108 44.0153 28.8303C44.4914 28.2334 44.8238 27.3954 44.9245 26.4448C45.1274 26.3583 45.3332 26.2714 45.5411 26.1866C45.3437 26.0357 45.1474 25.8844 44.9556 25.7338C44.9401 24.8203 44.7121 23.9857 44.3427 23.3288C44.4332 23.0038 44.5273 22.6703 44.6227 22.3375C44.404 22.4902 44.1849 22.6395 43.9714 22.7845C43.5339 22.2594 42.9813 21.9333 42.3779 21.9013C42.2747 21.6133 42.1704 21.3203 42.0669 21.0238L42.067 21.0242Z" fill="#151D21"/>
<path d="M44.6227 22.3375C44.8557 21.5245 45.1017 20.7341 45.3563 20.1825C44.5408 19.213 43.5055 18.6328 42.378 18.6328C42.3676 18.6328 42.3573 18.6329 42.3469 18.6328C42.3288 19.306 42.2071 20.1625 42.067 21.0242M44.6227 22.3375C45.1575 21.9641 45.6767 21.5695 46.035 21.1683C46.7237 22.3903 47.1382 23.9625 47.1382 25.6784C47.1382 25.6897 47.1383 25.7004 47.1382 25.7117C46.6912 25.7467 46.1177 25.9512 45.5411 26.1866M44.6227 22.3375C44.5273 22.6703 44.4332 23.0038 44.3427 23.3288C44.7121 23.9857 44.9401 24.8203 44.9556 25.7338C45.1474 25.8844 45.3437 26.0357 45.5411 26.1866M44.6227 22.3375C44.404 22.4902 44.1849 22.6395 43.9714 22.7845C43.5339 22.2594 42.9813 21.9333 42.3779 21.9013C42.2747 21.6133 42.1704 21.3203 42.0669 21.0238L42.067 21.0242M45.5411 26.1866C46.0712 26.5918 46.6022 26.9688 47.034 27.1419C46.8001 28.779 46.1828 30.2065 45.3271 31.2078C45.0295 30.7184 44.5876 30.1906 44.1288 29.6775M45.5411 26.1866C45.3332 26.2714 45.1274 26.3583 44.9245 26.4448C44.8238 27.3954 44.4914 28.2334 44.0153 28.8303C44.0519 29.1108 44.0895 29.3932 44.1288 29.6775M44.1288 29.6775C44.2446 30.5163 44.3748 31.3396 44.5422 31.952C43.8926 32.444 43.1579 32.7241 42.378 32.7241C42.0455 32.7241 41.7216 32.6729 41.4084 32.5769C41.4771 31.9163 41.4725 31.0533 41.4504 30.1802M44.1288 29.6775C43.9798 29.511 43.8321 29.3475 43.6842 29.1858C43.2759 29.5565 42.7941 29.7718 42.2791 29.7718C42.0873 29.7718 41.9016 29.7421 41.7211 29.6857C41.6302 29.8494 41.541 30.014 41.4504 30.1802M41.4504 30.1802C41.0755 30.8685 40.718 31.5633 40.5101 32.1603C39.4799 31.5092 38.6384 30.3347 38.1336 28.8639C38.5449 28.5527 39.0361 27.9477 39.5222 27.3115M41.4504 30.1802C41.4453 29.9754 41.4403 29.7726 41.4339 29.5691C40.6916 29.2057 40.0937 28.3783 39.8002 27.3196C39.7075 27.3163 39.6151 27.3141 39.5222 27.3115M39.5222 27.3115C38.8682 27.2941 38.2234 27.3115 37.775 27.4809C37.6725 26.9056 37.6177 26.3016 37.6177 25.6786C37.6177 24.5522 37.7979 23.4875 38.1153 22.5433C38.5323 22.8437 39.1587 23.0548 39.7985 23.2375C39.4088 22.4683 39.0079 21.7312 38.6477 21.2991C39.328 20.0305 40.2975 19.118 41.4083 18.7774C41.5313 19.4293 41.7891 20.2279 42.067 21.0242M39.5222 27.3115C39.5917 27.2205 39.6617 27.1309 39.7307 27.0392C39.6479 26.6598 39.6026 26.2538 39.6026 25.834C39.6026 25.0474 39.7605 24.3159 40.0307 23.7011C39.9537 23.5459 39.8769 23.3922 39.7984 23.2373C39.9344 23.2762 40.0692 23.3146 40.2045 23.3512C40.6231 22.5957 41.2284 22.0724 41.917 21.9348C41.968 21.6349 42.0171 21.3309 42.067 21.0242M42.378 15.6002C38.6181 15.6002 35.5706 20.1125 35.5706 25.6785C35.5706 31.2442 38.6181 35.7568 42.378 35.7568C46.1379 35.7568 49.1854 31.2445 49.1854 25.6785C49.1854 20.1125 46.1379 15.6002 42.378 15.6002Z" stroke="#7D7D7C" stroke-width="0.47918" stroke-linecap="square"/>
</g>
<path id="path3042" d="M29.7449 30.078C29.5409 29.9981 27.5331 29.3645 27.5331 29.3645L23.1152 25.2234L25.9958 18.7261L31.0446 20.9634L31.8605 20.5639L31.9625 24.0796L30.5856 26.3967C30.5856 26.3967 32.9315 27.6751 32.6255 27.835C32.3195 27.9948 29.7449 30.078 29.7449 30.078Z" fill="url(#paint0_linear_123_91)" stroke="black" stroke-width="0.47918"/>
<g id="path3018">
<path d="M12.087 18.9879C8.72497 18.9879 6.00024 23.0547 6.00024 28.0711C6.00024 33.0874 8.72513 37.1542 12.087 37.1542C15.4488 37.1542 18.1737 33.0874 18.1737 28.0711C18.1737 23.0547 15.4488 18.9879 12.087 18.9879ZM12.0591 21.7211C12.0684 21.7212 12.0776 21.7211 12.087 21.7211C13.0951 21.7211 14.0208 22.244 14.75 23.1177C14.5223 23.6149 14.3024 24.3273 14.094 25.06C14.5723 24.7235 15.0364 24.3678 15.3569 24.0063C15.9726 25.1076 16.3432 26.5245 16.3432 28.0711C16.3432 28.081 16.3433 28.091 16.3432 28.101C15.9435 28.1325 15.4308 28.3168 14.9152 28.529C15.3891 28.8942 15.8639 29.234 16.25 29.39C16.0409 30.8655 15.489 32.1518 14.7238 33.0543C14.4577 32.6132 14.0626 32.1375 13.6524 31.6751C13.756 32.4312 13.8723 33.1731 14.0221 33.7251C13.4412 34.1685 12.7843 34.4209 12.0869 34.4209C11.7896 34.4209 11.5 34.3748 11.2199 34.2882C11.2814 33.6929 11.2773 32.9151 11.2575 32.1282C10.9223 32.7486 10.6027 33.3747 10.4168 33.9128C9.49568 33.326 8.74332 32.2674 8.29196 30.9417C8.65967 30.6611 9.09887 30.116 9.53351 29.5425C8.94876 29.5267 8.37225 29.5425 7.97135 29.6952C7.87965 29.1767 7.83067 28.6323 7.83067 28.0708C7.83067 27.0556 7.99176 26.0961 8.2756 25.2449C8.64841 25.5157 9.20856 25.7059 9.78052 25.8706C9.43212 25.1774 9.07362 24.513 8.75161 24.1236C9.35986 22.9802 10.2267 22.1578 11.22 21.8509C11.3299 22.4384 11.5604 23.1581 11.8088 23.8758C11.9342 23.0991 12.043 22.3275 12.0591 21.7207L12.0591 21.7211ZM11.8089 23.8761C11.7642 24.1526 11.7204 24.4268 11.6747 24.6971C11.059 24.8211 10.5178 25.2927 10.1436 25.9736C10.0226 25.9406 9.90212 25.906 9.78049 25.871C9.85065 26.0106 9.91931 26.1491 9.98823 26.289C9.74658 26.8431 9.60545 27.5023 9.60545 28.2113C9.60545 28.5897 9.64593 28.9556 9.71996 29.2975C9.65828 29.3802 9.59566 29.4608 9.53348 29.5428C9.61655 29.5454 9.69918 29.5472 9.78211 29.5505C10.0445 30.5046 10.5791 31.2504 11.2429 31.5779C11.2486 31.7613 11.253 31.9439 11.2576 32.1285C11.3385 31.9787 11.4183 31.8305 11.4997 31.683C11.661 31.7339 11.827 31.7606 11.9986 31.7606C12.4591 31.7606 12.8899 31.5666 13.2549 31.2325C13.3872 31.3782 13.5192 31.5254 13.6524 31.6755C13.6172 31.4192 13.5837 31.1648 13.5509 30.9121C13.9766 30.3741 14.2739 29.6188 14.3639 28.762C14.5453 28.6841 14.7293 28.6058 14.9152 28.5293C14.7387 28.3933 14.5632 28.257 14.3917 28.1213C14.3779 27.298 14.174 26.5458 13.8438 25.9537C13.9247 25.6608 14.0087 25.3599 14.094 25.06C13.8985 25.1976 13.7026 25.3325 13.5117 25.4632C13.1206 24.9899 12.6265 24.696 12.0869 24.6672C11.9947 24.4076 11.9014 24.1434 11.8089 23.8761Z" fill="url(#paint1_linear_123_91)"/>
<path d="M14.094 25.06C14.3024 24.3273 14.5223 23.6149 14.75 23.1177C14.0208 22.244 13.0951 21.7211 12.087 21.7211C12.0776 21.7211 12.0684 21.7212 12.0591 21.7211L12.0591 21.7207C12.043 22.3275 11.9342 23.0991 11.8088 23.8758C11.5604 23.1581 11.3299 22.4384 11.22 21.8509C10.2267 22.1578 9.35986 22.9802 8.75161 24.1236C9.07362 24.513 9.43212 25.1774 9.78052 25.8706C9.20856 25.7059 8.64841 25.5157 8.2756 25.2449C7.99176 26.0961 7.83067 27.0556 7.83067 28.0708C7.83067 28.6323 7.87965 29.1767 7.97135 29.6952C8.37225 29.5425 8.94876 29.5267 9.53351 29.5425C9.09887 30.116 8.65967 30.6611 8.29196 30.9417C8.74332 32.2674 9.49568 33.326 10.4168 33.9128C10.6027 33.3747 10.9223 32.7486 11.2575 32.1282C11.2773 32.9151 11.2814 33.6929 11.2199 34.2882C11.5 34.3748 11.7896 34.4209 12.0869 34.4209C12.7843 34.4209 13.4412 34.1685 14.0221 33.7251C13.8723 33.1731 13.756 32.4312 13.6524 31.6751C14.0626 32.1375 14.4577 32.6132 14.7238 33.0543C15.489 32.1518 16.0409 30.8655 16.25 29.39C15.8639 29.234 15.3891 28.8942 14.9152 28.529C15.4308 28.3168 15.9435 28.1325 16.3432 28.101C16.3433 28.091 16.3432 28.081 16.3432 28.0711C16.3432 26.5245 15.9726 25.1076 15.3569 24.0063C15.0364 24.3678 14.5723 24.7235 14.094 25.06ZM14.094 25.06C14.0087 25.3599 13.9247 25.6608 13.8438 25.9537C14.174 26.5458 14.3779 27.298 14.3917 28.1213C14.5632 28.257 14.7387 28.3933 14.9152 28.5293C14.7293 28.6058 14.5453 28.6841 14.3639 28.762C14.2739 29.6188 13.9766 30.3741 13.5509 30.9121C13.5837 31.1648 13.6172 31.4192 13.6524 31.6755C13.5192 31.5254 13.3872 31.3782 13.2549 31.2325C12.8899 31.5666 12.4591 31.7606 11.9986 31.7606C11.827 31.7606 11.661 31.7339 11.4997 31.683C11.4183 31.8305 11.3385 31.9787 11.2576 32.1285C11.253 31.9439 11.2486 31.7613 11.2429 31.5779C10.5791 31.2504 10.0445 30.5046 9.78211 29.5505C9.69918 29.5472 9.61655 29.5454 9.53348 29.5428C9.59566 29.4608 9.65828 29.3802 9.71996 29.2975C9.64593 28.9556 9.60545 28.5897 9.60545 28.2113C9.60545 27.5023 9.74658 26.8431 9.98823 26.289C9.91931 26.1491 9.85065 26.0106 9.78049 25.871C9.90212 25.906 10.0226 25.9406 10.1436 25.9736C10.5178 25.2927 11.059 24.8211 11.6747 24.6971C11.7204 24.4268 11.7642 24.1526 11.8089 23.8761C11.9014 24.1434 11.9947 24.4076 12.0869 24.6672C12.6265 24.696 13.1206 24.9899 13.5117 25.4632C13.7026 25.3325 13.8985 25.1976 14.094 25.06ZM12.087 18.9879C8.72497 18.9879 6.00024 23.0547 6.00024 28.0711C6.00024 33.0874 8.72513 37.1542 12.087 37.1542C15.4488 37.1542 18.1737 33.0874 18.1737 28.0711C18.1737 23.0547 15.4488 18.9879 12.087 18.9879Z" stroke="#7D7D7C" stroke-width="0.47918" stroke-linecap="square"/>
</g>
<path id="path2996" d="M19.2644 27.908L22.5793 25.8305C22.5793 25.8305 24.4153 22.235 24.5682 21.8354C24.7212 21.4359 26.2001 18.2398 26.2001 18.2398L25.2821 17.2011L19.7234 13.9251L17.4284 12.8065L14.2157 11.4481L13.0937 9.92997L13.5527 7.93243L15.7965 6.09465L17.3265 5.61523C17.3265 5.61523 18.6524 3.13824 18.4484 3.13824C18.2444 3.13824 14.3686 6.89365 14.3686 6.89365L11.7168 7.77259L10.3398 10.3294L10.9008 10.4093L10.6968 10.8887L11.8188 11.5279L10.9518 15.3632L12.2778 16.3221L12.9917 17.9201L15.7966 21.8354L17.7856 24.6319L19.1115 25.7505L19.2644 27.908Z" fill="#FFAC33" stroke="black" stroke-width="0.47918"/>
<path id="path2998" d="M11.1125 8.3063L16.8768 1L19.4608 2.87597L14.0279 7.41793L11.1125 8.3063Z" fill="url(#paint2_linear_123_91)" stroke="black" stroke-width="0.47918"/>
<path id="path3000" d="M10.4123 10.0143C10.4123 10.0143 8.34548 12.8024 8.5934 14.4115C8.76961 15.5555 11.079 15.4727 11.079 15.4727L11.9716 11.644L10.4123 10.0143Z" fill="url(#paint3_linear_123_91)" stroke="black" stroke-width="0.47918"/>
<path id="path3002" d="M14.2255 17.9284C11.9095 18.182 9.49779 18.1854 7.87451 20.2519L10.2393 21.0601L10.7798 19.9489L13.8202 19.8478L16.0498 20.8581L14.2255 17.9284Z" fill="#FFAC33" stroke="black" stroke-width="0.47918"/>
<path id="path3004" d="M13.3486 9.84827C13.3486 9.84827 15.5239 9.66322 16.6126 9.60856C17.5981 9.55906 18.5898 9.3652 19.5704 9.52866C21.6533 9.87586 23.8912 10.0848 25.6901 11.7659C27.8932 13.8246 30.9939 20.9548 30.7898 20.795C30.5858 20.6352 26.353 18.6376 26.353 18.6376L25.2821 17.1994C25.2821 17.1994 20.1103 14.2328 17.4794 12.9645C16.4192 12.4534 14.2666 11.6062 14.2666 11.6062L13.3486 9.84827Z" fill="#0E232E" stroke="black" stroke-width="0.47918"/>
<path id="path3006" d="M27.0676 13.7619L25.7417 11.8442L20.54 9.68687C20.54 9.68687 20.081 9.52707 20.183 9.20746C20.285 8.88785 20.183 8.56825 20.642 8.08883C21.101 7.60941 24.0105 6.51523 25.7417 6.09126C26.5159 5.90165 27.5936 4.98635 28.6645 5.62556C29.7355 6.26477 31.0963 10.2462 31.0963 10.2462L30.4844 12.3236L27.0676 13.7619Z" fill="#FFAC33" stroke="black" stroke-width="0.47918"/>
<path id="path3008" d="M30.4836 12.4038L32.1155 13.9219L35.2773 13.6822L38.1842 9.28754L37.7762 8.88803L36.7563 10.0865L34.1554 10.7257L32.0136 11.2851H30.7896L30.4836 12.4038Z" fill="#0E232E" stroke="black" stroke-width="0.47918"/>
<path id="path3010" d="M35.2778 13.8412L38.0318 9.44648L40.1736 7.68863L43.8454 4.97202L46.9052 4.89212L43.9474 8.72742L40.1225 12.0034L37.7256 13.7613H35.5327L35.2778 13.8412Z" fill="#FFAC33" stroke="black" stroke-width="0.47918"/>
<path id="path3012" d="M43.6412 4.65298L37.829 6.41086C37.829 6.41086 37.7765 7.05009 37.5215 8.0089C37.2666 8.96774 37.0625 9.12754 37.5215 9.44717C37.9805 9.76677 38.8475 8.80793 38.8475 8.80793L43.6412 4.65298Z" fill="#0E232E" stroke="black" stroke-width="0.47918"/>
<path id="path3014" d="M27.0154 13.9228L28.8004 17.3586L30.8403 20.6345C34.9165 19.0887 36.711 16.3512 38.5379 13.6305L32.4721 13.8428L30.2793 12.3246L27.0154 13.9228Z" fill="#2D2D2D" stroke="black" stroke-width="0.47918"/>
<path id="path3020" d="M19.2141 27.4995L18.4404 32.8004L20.3361 33.1725L20.9481 32.4534L21.1995 33.0071L26.2518 33.1725L27.2717 32.1338L27.5777 33.0926L34.0085 32.8666L31.3916 30.3703L28.2916 32.6931L30.8925 30.0564C30.8925 30.0564 29.6685 30.0564 28.8016 29.8167C27.9346 29.577 25.7418 27.18 25.7418 27.18L23.2429 24.5433L20.1283 30.9413L22.4778 30.3763L20.285 31.0155L21.5089 26.8606L19.2141 27.4995Z" fill="url(#paint4_linear_123_91)" stroke="black" stroke-width="0.47918"/>
<path id="path3022" d="M30.9932 29.6695L31.1972 31.1078C32.3726 29.6412 36.1589 29.4514 36.7559 27.9117C36.9599 27.3524 37.7248 24.5559 37.7248 24.5559C38.786 23.5754 38.637 22.935 39.0508 24.5559L38.0308 22.1588C38.0308 22.1588 37.1129 23.0377 36.8579 23.6769C36.6029 24.3162 36.2459 25.6745 36.2459 25.6745C36.2765 27.1645 34.6951 27.6629 33.1351 28.3112L30.9932 29.6695Z" fill="url(#paint5_linear_123_91)" stroke="black" stroke-width="0.47918"/>
<path id="path3024" d="M39.561 24.4691L37.5217 21.2728L46.2616 12.1281C47.409 12.7074 48.2547 13.0765 48.0466 15.1643L39.561 24.4691Z" fill="url(#paint6_linear_123_91)" stroke="black" stroke-width="0.47918"/>
<path id="path3034" d="M29.1364 25.7079C29.138 26.0607 29.0949 26.4106 29.0095 26.7373C28.9242 27.0641 28.7983 27.3612 28.6391 27.6116C28.4799 27.862 28.2905 28.0607 28.0819 28.1963C27.8734 28.3319 27.6497 28.4018 27.4237 28.4018C27.1978 28.4018 26.9741 28.3319 26.7655 28.1963C26.5569 28.0607 26.3676 27.862 26.2084 27.6116C26.0492 27.3612 25.9233 27.0641 25.8379 26.7373C25.7525 26.4106 25.7094 26.0607 25.711 25.7079C25.7094 25.355 25.7525 25.0051 25.8379 24.6784C25.9233 24.3516 26.0492 24.0545 26.2084 23.8041C26.3676 23.5537 26.5569 23.355 26.7655 23.2194C26.9741 23.0838 27.1978 23.0139 27.4237 23.0139C27.6497 23.0139 27.8734 23.0838 28.0819 23.2194C28.2905 23.355 28.4799 23.5537 28.6391 23.8041C28.7983 24.0545 28.9242 24.3516 29.0095 24.6784C29.0949 25.0051 29.138 25.355 29.1364 25.7079Z" fill="#756457" stroke="#7D7D7C" stroke-width="0.479189" stroke-linecap="square"/>
<path id="path3038" d="M27.858 26.72C27.9117 26.6592 26.9729 26.8096 27.0334 26.8521C27.0939 26.8946 26.5414 25.696 26.5482 25.7993C26.5549 25.9027 26.9412 24.5537 26.8874 24.6145C26.8337 24.6753 27.7724 24.525 27.7119 24.4824C27.6515 24.4399 28.2039 25.6385 28.1972 25.5352C28.1905 25.4318 27.8042 26.7809 27.858 26.72Z" fill="#2D2D2D" stroke="#7D7D7C" stroke-width="0.479176" stroke-linecap="square"/>
<path id="path3044" d="M30.9932 22.3909L32.4211 25.1075L34.767 25.9865C34.767 25.9865 35.8277 23.19 36.4397 22.1512C37.0516 21.1124 38.6429 18.2359 38.6429 18.2359C38.6429 18.2359 41.5277 17.0648 41.2218 17.1447C40.9158 17.2247 30.9932 22.3909 30.9932 22.3909Z" fill="#000002" stroke="black" stroke-width="0.47918"/>
<path id="path3046" d="M39.0513 18.3165L35.0225 16.319L35.5834 15.5999L38.9493 17.4376L39.0513 18.3165Z" fill="#0E232E" stroke="black" stroke-width="0.47918"/>
<g id="path3048">
<path d="M39.1032 18.1581C38.8993 17.9983 35.9924 14.9621 35.9924 14.9621L36.7574 14.0032L39.1033 16.8796L38.6444 17.7586L38.9503 17.1194L38.7464 17.3591" fill="#0E232E"/>
<path d="M39.1032 18.1581C38.8993 17.9983 35.9924 14.9621 35.9924 14.9621L36.7574 14.0032L39.1033 16.8796L38.6444 17.7586L38.9503 17.1194L38.7464 17.3591" stroke="black" stroke-width="0.47918"/>
</g>
<path id="path3050" d="M34.002 26.1464L30.4832 25.1876L31.0951 24.4685L34.002 26.1464Z" stroke="black" stroke-width="0.47918"/>
<path id="path3052" d="M34.156 25.9932L30.5862 26.3927L30.6882 27.2716L34.156 26.7123L34.156 25.9932Z" stroke="black" stroke-width="0.47918"/>
<path id="path3054" d="M16.4017 17.8136L19.2865 20.0735L18.5653 23.6894L21.0174 19.3955L15.2476 15.7796L16.4017 17.8136Z" fill="#5C913B" stroke="black" stroke-width="0.479172"/>
<path id="path4262" opacity="0.97073" d="M15.2874 13.5221C15.2874 13.8188 15.2229 14.1033 15.1082 14.3131C14.9934 14.5228 14.8378 14.6407 14.6754 14.6407C14.5131 14.6407 14.3575 14.5228 14.2427 14.3131C14.128 14.1033 14.0635 13.8188 14.0635 13.5221C14.0635 13.2254 14.128 12.9409 14.2427 12.7311C14.3575 12.5213 14.5131 12.4035 14.6754 12.4035C14.8378 12.4035 14.9934 12.5213 15.1082 12.7311C15.2229 12.9409 15.2874 13.2254 15.2874 13.5221Z" fill="#0E232E" stroke="#7D7D7C" stroke-width="0.479172" stroke-linecap="square"/>
<path id="path4264" opacity="0.75122" d="M14.6769 14.0555C14.6769 14.0555 14.5749 12.6356 14.4236 11.9515C14.2238 11.0477 14.0869 10.1248 14.0869 10.1248" stroke="#292626" stroke-width="0.47918"/>
<path id="path4328" opacity="0.50732" d="M10.4123 10.0143C10.4123 10.0143 8.34548 12.8024 8.5934 14.4115C8.76961 15.5555 11.079 15.4727 11.079 15.4727L11.9716 11.644L10.4123 10.0143Z" fill="url(#paint7_linear_123_91)" stroke="black" stroke-width="0.47918"/>
</g>
<defs>
<filter id="filter0_f_123_91" x="0.137953" y="28.9008" width="57.1469" height="16.0551" filterUnits="userSpaceOnUse" color-interpolation-filters="sRGB">
<feFlood flood-opacity="0" result="BackgroundImageFix"/>
<feBlend mode="normal" in="SourceGraphic" in2="BackgroundImageFix" result="shape"/>
<feGaussianBlur stdDeviation="3.0227" result="effect1_foregroundBlur_123_91"/>
</filter>
<filter id="filter1_f_123_91" x="4.79245" y="0.375396" width="45.5994" height="37.9852" filterUnits="userSpaceOnUse" color-interpolation-filters="sRGB">
<feFlood flood-opacity="0" result="BackgroundImageFix"/>
<feBlend mode="normal" in="SourceGraphic" in2="BackgroundImageFix" result="shape"/>
<feGaussianBlur stdDeviation="0.484024" result="effect1_foregroundBlur_123_91"/>
</filter>
<linearGradient id="paint0_linear_123_91" x1="26.2826" y1="20.2997" x2="32.5569" y2="25.6393" gradientUnits="userSpaceOnUse">
<stop stop-color="#060606"/>
<stop offset="1" stop-color="#0E232E"/>
</linearGradient>
<linearGradient id="paint1_linear_123_91" x1="9.62293" y1="36.1193" x2="5.20576" y2="31.2273" gradientUnits="userSpaceOnUse">
<stop stop-color="#020207"/>
<stop offset="1" stop-color="#0E232E"/>
</linearGradient>
<linearGradient id="paint2_linear_123_91" x1="17.7346" y1="2.49544" x2="12.2345" y2="5.02594" gradientUnits="userSpaceOnUse">
<stop stop-color="#2D2D2D"/>
<stop offset="1" stop-color="#2D2D2D" stop-opacity="0"/>
</linearGradient>
<linearGradient id="paint3_linear_123_91" x1="10.799" y1="11.2841" x2="8.34647" y2="11.9247" gradientUnits="userSpaceOnUse">
<stop stop-color="#CCCCCC"/>
<stop offset="1" stop-color="white"/>
</linearGradient>
<linearGradient id="paint4_linear_123_91" x1="24.1911" y1="27.4185" x2="21.0048" y2="31.1469" gradientUnits="userSpaceOnUse">
<stop stop-color="#243137"/>
<stop offset="1" stop-color="#666666"/>
</linearGradient>
<linearGradient id="paint5_linear_123_91" x1="37.1724" y1="24.7071" x2="31.2289" y2="27.1614" gradientUnits="userSpaceOnUse">
<stop stop-color="#E6E7ED"/>
<stop offset="1" stop-color="#666666"/>
</linearGradient>
<linearGradient id="paint6_linear_123_91" x1="42.8701" y1="20.2997" x2="40.9663" y2="19.1487" gradientUnits="userSpaceOnUse">
<stop stop-color="#CFCFDD"/>
<stop offset="1" stop-color="#999999"/>
</linearGradient>
<linearGradient id="paint7_linear_123_91" x1="8.75892" y1="13.6816" x2="10.4706" y2="13.1715" gradientUnits="userSpaceOnUse">
<stop stop-color="#364E59"/>
<stop offset="1" stop-color="#364E59" stop-opacity="0"/>
</linearGradient>
</defs>
</svg>
